<?xml version="1.0" encoding="UTF-8"?>
<svg id="_Слой_1" data-name="Слой 1" xmlns="http://www.w3.org/2000/svg" viewBox="0 0 3340.94 9.64">
  <path d="M2119.16,8.18c-1.55-.08-3.03-.17-4.67-.24-.47-.02-2.07,.02-2.06,.02,1.12,.5-4.64,.29-7.84,.38-2.93,.08-3.63-.29-6.53-.08-2.33,.17-3.7-.04-5.52-.1-.73-.02-2.08,.02-2.97,.06-4.04,.16-7.54,.14-10.93-.1-1.12-.08-3.21-.14-4.77-.13-2.77,.01-5.52,.14-8.17,.12-2.08-.01-3.71-.27-6.49-.05-.2,.02-1.51-.04-2.33-.05-3.92-.06-7.64-.12-11.63,.04-2.1,.09-5.97,.2-6.32-.16-.01-.01-1.74-.04-2.05-.02-2.33,.15-3.82,.06-5.69-.05-.28-.02-2.53,.14-3.94,.21-.38,.02-1.32,.03-1.55,0-2.8-.21-6.44-.07-10.64-.16-.69-.02-.33,.01,.02,.05,.34-.02,.69-.05,1.04-.07-.45-.02-.87-.05-1.37-.07-.08,0-.47,.03,.31,.09-1.31,.26-3.57,.25-5.15-.03,.24-.05-.22-.02-.67,0,.34,.02,.67,.05,1.01,.07,.36-.03,.76-.06,1.04-.09,.05,0-.43-.03-1.38,.02-2.67,.06-4.36-.17-6.76,.07-1.79,.18-4.19,.38-8.34,.29-1.34-.03-3.22-.03-3.92-.09-2.77-.24-5.57-.26-9.11-.08-1.75,.09-2.61-.29-5.24-.05-1.49,.13-3.08,0-4.64-.07-1.05-.05-3.5-.08-4.11-.04-3.93,.27-7.1,.01-10.5-.05-.63-.01-1.12-.1-1.59-.1-2.61,.02-6.69,.13-7.48,.07-1.68-.14-2.04-.36-5.36-.41-.72-.01-1.51,0-5.01-.05-.98,0-.21,.03,.62,.05,.67,.01,1.42,0,2.13,0-.52-.05-.89-.13-1.59-.15-.8-.02-1.88,.02-1.16,.1,2.65,.22,2.81,.49-1.04,.31-4.15-.19-7.76-.16-9.27,.08-2.02,.33-3.51,.34-6.56,.09-1.95-.16-3.5-.21-6.46-.05-1.77,.09-5.41,.18-6.39-.18-.34-.12-4.75-.22-6.54,.06-2.58,.08-4.89,.19-8.12,.16-1.44-.01-4.38,.13-4.48,.12-1.63-.19,2.12-.19,2.59-.31,.32-.08,.11-.17,.14-.26-1.02,0-2.28-.03-3.03,0-2.75,.11-5.32,.24-7.99,.36-1.29,.06-2.76,.16-4,.15-2.36-.02-4.95-.07-6.84-.16-3.37-.17-6.29-.37-8.72-.63,.24-.05-.22-.02-.66,0,.34,.02,.67,.05,1.01,.07,.36-.03,.76-.06,1.04-.09,.05,0-.43-.03-1.38,.02-2.63,.12-4.7,.16-6.49,.23-.7,.03-1.32,.14-1.05,.19,.98,.18,2.03-.01,2.84,0,1.16,.01,2.14,.09,3.21,.15-.8,.04-1.87,.13-2.36,.12-6.58-.17-14.49-.03-20.31-.41-1.44-.1-4.91-.05-7.46-.07,.02,.05,0,.11,.06,.16,.11,.09,.28,.18,.42,.26-1.06-.05-2.26-.08-3.16-.14-4.61-.3-4.99-.32-10.2-.03-2.56,.14-4.84,.19-7.92,.21-1.36,0-1.9,.09-4.16,.03-4.47-.13-8.1-.4-13.62-.39-1.12,0-2.04-.23-3.59-.29-1.47-.05-4.93-.34-5.34,.08-.02,.02-2.64,.03-5.09,0-.69-.02-.33,.01,.02,.04,.35-.02,.69-.05,1.04-.07-.45-.02-.87-.05-1.37-.07-.09,0-.47,.03,.31,.09-3.11,.35-8.81,.39-14.34,.46-.12,0-.48-.08,.01-.31-.02-.07-.46-.01-.67,.04-.17,.05-.05,.1-.06,.14,.77-.03,1.96-.06,2.2-.11,.27-.05-.3-.13-1.47-.08-2.6,.25-3.36-.1-5.98,.14-1.44,.13-3.13,0-4.58-.08-3.83-.23-7.77-.45-11.76-.66-.47-.03-1.83-.03-2.11,0-.39,.03-.4,.11-.15,.15,.62,.11,1.61,.21,2.21,.32,.21,.04-.05,.12-.51,.14-.43,.02-1.5,0-2.08-.01-1.73-.07,.05-.34-3.6-.29-1.67,.02-3.56,.07-4.69,.15-3.03,.21-5.31,.09-8.52,.01-1.59-.04-4.66,.11-7.02-.03,.28-.04,.43-.12,.86-.13,2.11-.04,5.1-.05,3.44-.26-.53-.07-4.16-.08-5.89-.03-3.38,.09-3.02,.32-3.08,.53-.02,.06-.76,.13-1.17,.19-.8-.06-1.76-.1-2.34-.17-.53-.06-.43-.15-1.01-.2-1.49-.14-1.79-.07-2.38,.05-.32,.07-1.85,.11-2.84,.16-.54-.06-1.41-.11-1.55-.17-.24-.1,.61-.24-.13-.3-2.05-.18,5.11-.36,.29-.44-4.16-.07-1.52,.26-2.78,.39-3.99,.41-9.04,.47-14.99,.16-1.68-.09-2.12-.17-3.26,.05-1.16,.22-7.7,.08-7.93,.44-2.1-.34-8.31,.15-10.48-.24-.65-.12-2.54-.33-5.7-.1-.46,.03,.3-.31-3.35-.3-1.42,0-3.79-.1-4.14-.07-1.37,.12-4.93,.14-3.9,.37,.22,.05,.09,.11,.12,.16-1.14,0-2.29,0-4.47-.05-.69-.02-.34,.01,.02,.05,.35-.02,.69-.05,1.04-.07-.45-.02-.87-.05-1.36-.07-.09,0-.47,.03,.31,.09,.76,.14,.58,.32,.19,.32-3.27,.02-6.6,.02-9.86,0-.4,0-.5-.18-.06-.34,.23-.05-.22-.02-.67,0,.34,.02,.67,.05,1.01,.07,.36-.03,.76-.06,1.04-.09,.05,0-.43-.03-1.38,.02-5.12,.2-10.28,.07-12.08-.23-2.27-.37-2.25-.37-7.27-.24-1.29,.03-2.76,.03-6.89,0-.98,0-.21,.03,.62,.05,.67,.01,1.42,0,2.13,0-.52-.05-.89-.13-1.58-.15-.8-.02-1.88,.02-1.16,.1,2.39,.16,3.74,.31,.9,.36-2.04,.03-4.35,.06-5.94,.14-1.91,.1-2.62,.17-5.1,.02-1.97-.12-3.76,.1-5.34,.2-1.62,.1-3.33,.15-4.58,0-.44-.05,.8-.17,1.29-.26,.25-.04,.55-.09,1.51-.2,.23-.05-.22-.02-.67,0,.34,.02,.67,.05,1.01,.07,.36-.03,.76-.06,1.04-.09,.05,0-.43-.03-1.38,.02-4.11,.07-7.54,.06-10.97,.06-1.3,0-1.23,0,0,.16,.26,.03-.03,.12-.47,.14-3.67,.15-11.44,.05-13.86-.21-2.85-.31-5.38-.55-11.24-.28-.51,.02-2.77-.04-2.8-.07-.32-.41-2.69-.16-4.09-.05-1.39,.11-1.48,.24,1.24,.27,1.1,.02,2.32,0,3.41,0,1.19,.02,2.3,.06,3.44,.1-3.09,.1,.4,.27-.47,.31-1.29,.06-4.88,.06-5.04,.03-2.19-.42-10.59-.31-12.78-.71-.09-.02-1.4-.02-1.49-.01-.33,.04-.66,.1-.47,.14,.59,.12,4.43,.32-1.5,.27-2.84-.02-5.6,.04-8.55-.11-2.84-.14-3.81-.06-4.44,.29-.23,.13-2.43,.18-3.42,.06-3.32-.41-12.22-.1-14.97-.56-1.85,.05-4.38,.07-5.42,.17-2.61,.24-3.45-.11-6.35-.09-.69-.02-.33,.01,.02,.05,.35-.02,.69-.05,1.04-.07-.45-.02-.87-.05-1.37-.07-.08,0-.46,.03,.31,.09,.58,.3-2.38,.16-4.24,.19-.06,0-.83-.11-.6-.13,1.55-.11,2.27-.23,.25-.32-2.04-.09-4.57-.12-6.93-.16-.11,0-1.29,.17-1.04,.18,2.77,.15,.44,.28-.15,.42-.47,.11,1,.28-1.82,.31-3.88,.03-2.24-.19-2.89-.31-.57-.11-1.87-.21-3.2-.29-.5-.03-1.98,.01-3.02,.02,.2,.04,.3,.08,.62,.11,2.38,.22,1.55,.32-2.49,.31-1.14,0-2.31-.01-3.42,0-3.24,.04-5.07-.09-1.98-.48,.94-.09-.75,0-2.37,.09-.19,.01-.07,.07-.04,.07,.75,0,1.63,.02,2.25,0,1.28-.04,2.47-.1,3.59-.16,.36-.02,.44-.07,.47-.11,0-.01-.55-.03-3.89,.1-3.53,.17-4.72,.18-5.73,.16-1.39-.03-3.12-.32-3.57,.04-.03,.02,.01,.05-.02,.08-.67,.49-3.32-.12-4.59,.04-.24-.04-.48-.09-.73-.13-.52,.04-1.04,.08-1.56,.13-1.11,0-2.92-.03-3.21,0-2.21,.25-4.01-.01-7.37-.14-.45-.04,.48,.04,1.42,.13,.74-.08,2.25-.17,2.03-.24-.28-.09-1.92-.15-2.98-.22-.51,.06-1.03,.11-.47,.33,1.13,.22,.85,.32,.57,.41-1.29-.02-2.73-.03-3.85-.07-2.88-.11-2.02-.3-2.16-.48-.06-.07-.59-.14-.91-.2-.45,.08-1.27,.17-1.28,.25-.01,.17-1.17,.23-3.46,.2-4.66-.05-10.86,0-15.39,.14-2.43,.07-4.78,.29-7.34,.01-2.66,.18-6.04,.11-9.19,.13-3.85,.03-4.76-.22-7.19-.32-.84-.03-2.23,0-4.41-.05-.69-.02-.34,.01,.02,.05,.34-.02,.69-.05,1.04-.07-.45-.02-.87-.05-1.36-.07-.08,0-.47,.03,.31,.09,.43,.1-.07,.16-.82,.2-1.54,.08-5.12-.37-5.38,.09,0,0-1.3,.02-1.5,0-.84-.07-2.28-.2-2.09-.21,3.34-.23,2.22-.33-1.96-.39-1.04-.02-1.61-.16-2.4-.25-.56,.09-.87,.19-1.73,.26-.89,.07-2.22,.13-3.53,.17-.42,.01-2-.07-1.94-.09,.18-.07,2.96-.11,.48-.2-.67-.02-2.14,.02-2.96,.06-1.23,.06-2.27,.14-3.3,.21-2.19,.16-3.49,.16-5.66-.02-.48-.04-1.05-.07-1.58-.11-.4,.04-1.11,.08-1.15,.12-.16,.18-.06,.36-.22,.54-.03,.04-.78,.07-1.2,.11-.35-.04-.95-.08-.99-.13-.11-.13,.77-.3-.14-.38-1.52-.13-4.9-.17-4.99-.39-3.49,.05-1.98,.29-1.5,.34,1.66,.18-4.64,.25-1.02,.45,.65,.04-5.17,.16-5.47,.05-.91-.35-4.48-.25-7.51-.27-1.58-.14-3.07-.28-4.76-.41-1.68-.13-3.76-.09-4.59,.04-2.51,.38-8.1,.39-12.68,.52-1.02,.03-2.14,.04-3.22,.06,.28-.07,.57-.14,.85-.21,.21-.05,.4-.11,.6-.16-1.22,.03-3.06,.03-3.54,.09-.85,.1-.5,.25-1.36,.35-.63,.07-1.51,.24-4.03,.06-2.8-.2-5.04-.58-3.87-.84,.31-.07,0-.15-.01-.23-1.08,.02-2.73,.03-3.13,.08-1.54,.19-6.91,.1-6.49,.42-1.34-.01-2.7-.04-4.01-.04-1.37,0-2.69,.06-4.07,.07-2.28,.03-5.8-.09-5.33,.23,.02,.01-1.37,.05-1.48,.04-3.93-.31-5.61,.01-8,.13-1.84,.09-3.29,.1-4.25-.07-.5-.09-1.17-.18-2.01-.25-1.31-.12-3.35-.16-4.57-.03-2.28,.26-6.68,.17-9.57,.31-.42,.02-1.06,.02-1.6,.03-.85-.49-5.33,.02-8.45-.17-.69-.02-.33,.01,.02,.04,.35-.02,.69-.05,1.04-.07-.45-.02-.87-.05-1.37-.07-.08,0-.47,.03,.31,.09,.22,.13-.62,.2-1.43,.29-2.69,.27-6.13,.25-9.05,.05-4.39-.29-9.47-.36-15.26-.33-1.71,0-3.54-.04-5.22-.08-2.44-.06-2.33-.05-8,.05-2.34,.04-5.71,.04-7.47-.05-2.54-.13-4.97-.08-7.47-.1-.58,0-1.24,.07-1.87,.1,.66,.02,1.34,.03,1.99,.05,.65,.02,1.26,.04,1.9,.06-.43,.03-.85,.09-1.3,.09-3.27,.01-6.75-.05-9.48,.14-.06,0-1.88-.09-2.75-.15-1.48-.1-2.6-.24-4.36-.3-1.29-.04-5.3-.36-4.79,.1,.03,.03,.15,.06-.04,.08-1.18,.09-2.44,.17-3.67,.25-1.06-.1-2.11-.2-1.97-.38,.49-.05-.34-.02-1.18,0,.35,.02,.79,.07,1.03,.07,1.15-.02,2.24-.05,3.36-.08-.57-.02-1.15-.04-3.21,0-3.42,.11-6.22,.21-7.77,.15-4.83-.18-1.28,.21-3.38,.2-1.79,0-5.1,.01-5.16,0-1.35-.5-8.6-.21-12.41-.42-2.18-.12-1.61,.09-.34,.18-.7,.03-1.34,.08-2.1,.1-4.2,.13-8.07,.3-13.28,.16-1.77-.05-4.74,.07-6.97,.14-2.66,.08-5.07,.19-6.97-.07-.21-.03-1.54-.03-2.34-.03-2.89,.01-14.45-.23-16.03-.35-.64-.05-.74-.13-1.09-.2-.27,.02-.68,.03-.8,.05-.52,.09-3.49,.09-1.65,.28,.86,.09-.73,.29-1.22,.44-5.43-.27-11.19-.49-18.23-.48-.2-.5-.4-.51-6.08-.47-2,.01-6.05,.41-5.38,.53,.12,.02,.48,.05,.74,.05,2.23,0,5.15,.16,6.13-.12,1.53,0,3.06,0,4.58,0-.03,.13-.21,.26-.02,.39,.11,.08,.81,.15,1.25,.22-2.1,.03-3.49,.02-3.76-.17-.08-.05-2.12-.13-3.12-.13-4.66,.04-9.83-.17-14.05,.13-.35,.02-2.8-.03-2.85-.06-.88-.44-3.63-.2-6.61-.11-3.22,.1-6.55,.22-10.49,.16-1.22-.02-2.68,.05-4.06,.07-1.28,.02-2.6,.02-3.91,.03,.7-.07,1.41-.14,2.1-.22,.51-.05,.99-.11,1.48-.16-1.03-.01-2.18-.05-3.07-.03-2.68,.06-5.24,.14-7.9,.2-.71,.02-1.66,.01-2.4,0-5.05-.11-4.88-.11-7.32,.17-.48,.05-2.7,.04-4.12,.06-.03-.18,.79-.43-3.71-.16-.59,.04-2.07,0-3.13,0,0-.03,.15-.06,0-.08-.97-.13-2.01-.25-3.02-.37-1.07,.11-2.15,.21-3.2,.32-1.67,.17-3.09,.07-3.9-.04-1.82-.23-2.73-.52-8.07-.48-.95-.28-4.26-.19-6.06-.12-2.11,.08-.54,.21,.83,.31,.43,.03,.62,.09,.52,.14-.22,.09-.53,.19-1.19,.27-.14,.02-2-.01-2.94-.04-1.61-.05-3.1-.11-4.7-.16-1.24-.04-2.58-.06-3.87-.09,.67,.09,1.39,.18,1.98,.28,.32,.05,.43,.11,.63,.16-1.03,0-2.2,0-3.05-.03-.96-.03-1.56-.11-2.44-.16-3.35-.18-4.04-.17-5,.16-.53,.18-.99,.23-2.99,.07-1.48-.12-3-.24-4.79-.33-3.92-.2-6.04-.2-8.08,.1-1.03,.15-1.75,.19-3.83,.18-1.9,0-3.84,0-5.7-.01-1.71-.02-3.3-.09-5.01-.11-1.28-.01-2.71,.03-4.03,.02-1.76-.01-4-.01-5.12-.09-2.49-.16-5.31-.15-8.26-.16-3.56,0-2.16-.1-.77-.21,.52-.04,.14-.13,.17-.2-.81,.02-1.64,.06-2.44,.05-4.16-.01-6.54,.18-9.1,.35-1.16,.08-1.84,.18-2.74,.28-1.33-.07-2.63-.15-4.01-.22-.79-.04-.76-.03-2.14,.12-.48,.05-1.5,.08-2.27,.12,.01-.05,.12-.1,0-.15-.11-.05-.45-.09-.69-.13-.52,.04-1.22,.08-1.52,.13-.26,.04-.08,.1-.09,.15-1.87,.07-2.11-.23-5.37-.07-2.68,.13-6.77,.39-11.57,.1-1.55-.1-.61,.37-4.29,.25-1.54-.05-3.15-.3-3.43-.29-5.2,.18-9.32,.09-13.16-.17-.39-.03-2.19,0-2.95,.04-2.73,.14-5.14,.15-7.82-.01-1.6-.1-3.92-.1-3.98,.08-.11,.39-5.39-.18-5.48,.15-2.97-.04-.99-.19-1.44-.29-.22-.05-.02-.1,0-.15,.78-.05,1.55-.1,3.67-.14,3.71,0,5.48-.02,7.2-.04,.34,0,.64-.08,.6-.13-.04-.04-.7-.12-.77-.12-2.81,.06-5.58,.13-8.36,.2,1.02,.04,2.05,.07,1.33,.08-2.12,.04-2.9,.09-3.67,.14-3.07,.03-5.15-.02-4.6-.28,.13-.06-.69-.13-1.07-.19-.81,.05-1.68,.1-2.42,.16-.45,.04-.98,.08-.99,.12-.08,.28-.48,.48-5.43,.21-.93-.05-3.28,.18-4.7-.03-.5,.13-.98,.26-1.5,.38-.28,.07-.64,.14-.97,.2-.44-.05-.78-.12-1.34-.16-1.59-.14-3.11-.28-4.97-.4-1.57-.1-3.33-.1-4.1,.07-.2,.05-.23,.1-.58,.14-1.01,.11-2.14,.22-3.23,.33-1.8-.1-3.6-.2-4.72-.37,.23-.05-.22-.02-.67,0,.33,.02,.67,.05,1.01,.07,.36-.03,.76-.06,1.04-.09,.05,0-.43-.03-1.38,.02-4.59-.02-8.47,.26-12.55,.07-.79-.04-2.76,.04-4.18,.06,.56-.09,1.28-.17,1.59-.26,.11-.03-1.03-.12-1.17-.12-1.29,.04-2.75,.08-3.67,.14-2.26,.17-4.08,.21-6.33,.16-1.36-.03-3.61-.36-4.65,.07-.4,.16-11.73,.11-14.1-.08-3.2-.26-6.85-.35-11.73-.34-3.72,.01-3.86,.06-1.47,.23,.17,.01-9.61,.2-11.19,.14-2.88-.11-5.34-.26-9.14-.09-1.82,.08-3.93-.04-5.82-.15-4.41-.25-5.06-.23-10.19,.04-.5,.03-1.58,.03-2.19,.02-1.62-.04-3.09-.12-4.71-.16-.6-.02-2.01,0-2.11,.02-.55,.11-.62,.33-1.18,.34-3.72,.03-7.53,.02-11.31,.01-.3,0-.61-.02-.88-.04-1.9-.11,1.72-.41-2.61-.41-1.62,0-3.08,.2-4.87,.28-.77,.04-2.22,0-3.36,0-4.81,.02-10.35-.33-14.57,.13-.24,.03-5.87,.15-5.99-.23,.5-.05-.34-.02-1.18,0,.35,.02,.79,.07,1.04,.07,1.15-.02,2.24-.05,3.35-.08-.57-.02-1.15-.04-3.21,0-3.81,.16-6.17,.29-9.43,.23-2.52-.05-5.14-.09-7.73-.09-2.49,0-4.99,.05-7.5,.07-2.13,.01-2.06,0-5.02-.3-.61-.06-2.79-.13-3.03-.12-2.13,.14-3.88,.13-5.63-.02-1.36,.09-2.73,.18-4.09,.27-1.84-.07-2.76,.28-5.3,.04-.69-.06-3.81-.08-5.09-.04-8.32,.31-14.69,.15-20.17-.32-.74-.06-2.07-.1-3.12-.15-.21,.07-.58,.14-.6,.21-.06,.31-1.39,.14-3.52,.08-1.33-.04-3.77,.08-6.76,.08-.69-.02-.33,.01,.02,.05,.35-.02,.69-.05,1.04-.07-.45-.02-.87-.05-1.37-.07-.08,0-.46,.03,.31,.09,.05,.1-1.36,.21-1.89,.19-4.89-.15-9.92-.25-15.18-.34-3.6-.06-6.26-.1-9.7,0-1.91,.06-4.8,.04-4.17-.21,.78-.31-2.56-.24-5.02-.24-.34,0-1.11,.11-.95,.12,1.49,.1,1.48,.33,.53,.3-2.81-.08-3.42,.29-6.61,.09-3.25-.2-8.9,.07-12.53-.21-.47-.04-3.71,.11-5.76,.13-5.07,.06-10.11-.17-15.31-.02-.52,.02-1.79-.06-2.45-.1-.68-.05-.37-.37-2.01-.08-2.14,.37-5.89,.37-9.83,.32-4.97-.06-9.74-.18-14.91-.19-1.58,0-3.31-.09-4.64-.16-1.41-.08-.71-.4-3.58-.25-1.76,.09-5.25,.28-3.62,.55,.35,.06,.83,.11,1.26,.17-1.03,0-2.26,.04-3.07,.02-2-.07-8.17-.14-10.99-.15-2.64,0-5.6-.14-7.79-.09-3.56,.08-6.52-.21-10.64,.02-2.52,.14-8.03,.01-12.11,.05-9.47,.08-18.3-.21-27.65-.19-3.68,0-4.71-.19-5.4-.41-.07-.02-2.44,0-3.74-.01-.05,.36-5.13,.37-8.1,.53-4.46,.23-4.55,.22-6.11-.14-.19-.05-.62-.09-.94-.13-.44,.03-1,.06-1.31,.1-3.25,.38-8.2,.44-13.54,.27-3.33-.11-6.43-.14-9.3-.02-4.61,.21-6.44,.06-7.9-.22-.34-.07-1.43-.12-2.36-.16-.54-.02-1.76-.03-2.12-.01-.7,.04-1.46,.12-1.35,.18,.11,.06,1.4,.12,1.71,.18,.29,.06-.02,.14-.07,.21-.81-.02-1.58-.06-2.42-.07-2.58-.02-5.18-.03-7.77-.05-1.49,0-3.93,.02-4.33-.03-4.39-.54-8.35-.14-12.5,0-2.56,.09-4.97,.21-8.25,.15-1.81-.03-3.84-.03-5.7,0-3.16,.03-6.36,.15-9.37,.13-2.57-.02-4.74-.23-7.38-.27-3.47-.05-7.34-.12-10.76,.05-4.43,.22-9.52,.22-14.73,.21-3.23,0-6.67-.08-9.55,.13-.65,.05-3.71,0-5.08-.07-1.78-.08-3-.13-4.83-.02-.75,.04-1.92,.08-2.91,.08-7.38,0-14.75-.05-22.05,.12-2.58,.06-5.98,0-8.83-.04-1.2-.02-1.82-.13-3.31-.01-2.68,.21-5.48,.31-9.59,.1-1.22-.06-4.38,.08-6.7,.09-7.7,.05-15.43,.08-23.12,.14-3.55,.03-7.07,.14-10.53,.13-4.36-.02-7.99,.33-13.29,.02-3.02-.18-9.43,.08-13.75-.18-.81-.05-3.53,.01-5.13,.06-4.46,.13-7.44,.15-10.4-.21-1.88-.23-6.57-.44-10.42-.48-5.47-.06-6.94-.37-10.49-.54-3.66-.17-3.65-.33-.14-.55,3.21-.2,4.55-.48,4.55-.8,0-.21,1.78-.42,2.19-.63,.43-.23-.44-.47,.39-.69,1.04-.27,3.25-.53,4.94-.79,.7-.11,1.4-.22,2.01-.33,.95-.18-4.59-.27-1.5-.46,1.82-.11,4.27-.18,6.32-.27,3.28-.16,6.16-.37,9.77-.47,4.9-.13,9.01-.43,15.02-.36,1.4,.02,3.48,.03,4.3-.03,5.14-.33,11.4-.41,18.11-.42,1.25,0,2.75-.08,3.63-.15,4.55-.36,10.64-.31,16.53-.29,4.91,.02,8.97-.15,13.39-.25,1.29-.03,3.13-.2,3.18-.19,3.67,.24,7.21-.11,10.87,0,1.95,.06,4.21,.07,6.36,.08,2.36,.02,4.77,.01,7.14,.03,2.55,.02,5.11,.07,7.63,.06,2.85-.01,5.83,.09,8.67-.08,1.53-.09,14.15-.06,17.15-.05,5.71,.02,11.91,.11,17.02,0,3.88-.09,4.76,.02,6.86,.13,1.57,.08,4.28-.15,5.68,.07,5.11-.09,9.9,.17,15.34,.03,5.07-.14,9.66,.17,14.72,.2,.95,0,1.77,.08,2.72,.11,3.34,.11,6.21-.15,9.87-.04,2.88,.09,6.39,.15,9.32-.06,.59-.04,2.54-.06,3.09-.03,2.43,.14,5.32,.04,7.91,.09,1.9,.04,4.37,.06,6.11,.01,5.1-.14,9.83-.15,14.79,.03,1.47,.05,3.62,.06,5.32,.03,5.35-.07,5.33-.08,5.92,.39-.75-.01-1.13-.05-1.51-.05-.99,0-1.98,.02-2.97,.03,.12,.03,.24,.1,.37,.1,1.23,0,2.47-.01,4.11-.08,3.77-.18,7.3-.6,12.76-.2,4.86-.08,9.69-.16,14.58-.23,2-.03,4.47-.06,6.09,0,1.51,.05,1.85,.07,3.4,0,7.39-.35,13.96-.38,22.09-.14,1.9,.06,4.92,.14,6,.09,3.25-.16,5.73-.2,8.89,0,.59,.04,2.5-.03,3.82-.04,2.06-.02,5.47-.08,5.99-.02,3.28,.35,7.07,.2,11.33,.13,3.63-.05,7.61,.02,11.4,0,4.68-.03,9.79,.15,14.05-.13,.34-.02,2.79,.05,2.77,.07-.43,.31,3.17,.29,5.22,.23,4.57-.12,8.71,.03,13.04,.03,4.95,0,10.18-.06,14.8,.03,5.42,.1,11.51,.28,16.02,.12,4.68-.16,8.78-.06,13.04-.11,3.42-.04,6.49,.04,9.3,.16,2.88,.13,5.12,.21,4.5-.15-.07-.04,2.17-.16,2.77-.14,2.29,.06,4.32,.16,6.49,.25,1.77,.07,4.19-.15,5.82,.06,.35,.05,2.31,.03,2.84,.08,2.89,.26,4.76,.3,6.31,.04,1.88-.31,3.37-.35,6.57-.11,.55-.04,1.01-.08,1.66-.11,1.86-.07,3.59-.09,3.99,.1,.16,.08-.24,.16,.03,.23,.47,.13-1.64,.3,1.33,.38,.78-.19,6.41-.03,5.61-.37-.68-.29,.96-.16,3.36-.09,2.26,.07,5.38,.26,8.25,.03,2.85,.21,4.69,.07,6.84-.07,.71-.05,3.1-.06,3.71-.02,2.03,.13,3.63,.16,5.71,.01,.22-.02,1.52,.04,2.34,.06,1.42,.03,3.33,.42,4.23-.03,.08-.04,2.54-.06,3.93-.08,7.18-.09,14.02,.08,20.68,.19,4.3,.08,8.4,.15,12.83,.15,1.04,0,2.83,.01,3.02,.05,2.19,.43,6.09,.22,10.22,.17,5.89-.06,11.86-.2,17.89-.12,2.77,.04,5.59,.25,7.84,.21,2.54-.04,4.46-.26,6.65-.41,7.64,.33,11.6-.3,17.86-.31,4.03,0,8-.04,11.3,.23,2.4,.2,6.06,.31,9.6,0,.79-.07,4.44-.05,5.88,.01,1.77,.08,2.16,.02,3.44-.02,.93-.03,2.53,.02,3.83,.03-.25,.07-.49,.14-.76,.21-.21,.05-.45,.11-.67,.16,1.24-.03,3.1-.03,3.57-.08,.85-.1,.65-.33,1.28-.34,2.46-.03,5.58-.04,7.5,.04,2.36,.1,3.37,.09,5.78,0,2.26-.07,5.54,0,8.36,.01,2.08,.01,5.17,.12,6,.06,3.35-.23,5.24-.09,7.3,.08,1.03,.08,1.59,.11,3.36,.03,1.66-.07,4.25-.04,6.94-.06,.17,0-.17,0-.51,0,.2,.04,.31,.09,.67,.12,.11,0,.91-.02,1.39-.02-.35-.03-.69-.06-1.55-.09,.1-.05,1.24-.15,1.27-.15,3.9,.2,8.45,.16,12.84,.16,3.72,0,5.69,.15,5.81,.36,.19,.34,1.77,.34,5.29,.17,1.03-.05,2.84-.03,4.28-.04,2.67-.03,1.86-.11,.5-.18-2-.1-4.14-.19-6.17-.29-.46-.02-.73-.06-1.09-.1,.65-.02,1.28-.04,1.96-.05,.74,0,1.86-.02,2.24,0,4.94,.34,12.47-.01,17.69,.31,2.07,.13,5.56,.2,7.88-.07,.38-.04,2.82-.05,3.73-.02,4.55,.19,9.53,.17,13.84,.05,4.08-.12,6.68-.22,10.7,.04,2.58,.17,7.22,.02,7.87-.23,.88-.33,3.99-.19,6.01-.18,3.09,0,9.5,.25,12.74,.41,2.48,.12,4.06,.1,4.38-.12,.1-.07-.08-.17,.52-.22,.55-.04,2.8-.06,2.89-.05,3.13,.49,8.07,.38,13.36,.2,.04,0,.85,.13,1.61,.19,.37,.02,1.7,.02,2.17,0,.79-.04,1.24-.12,1.83-.18,.34,.1,3.22,.08,1.79,.28-1.37,.19-1.08,.44-1.37,.66-.04,.03,.8,.06,1.29,.09,.03,0,.78-.04,.75-.05-.82-.37,4.1-.04,4.69-.18,.53-.12-.13-.26,.25-.38,.65-.21,3.45-.29,7.21-.18,2.28,.07,3.49,.03,4.78-.07,4.72-.38,9.91-.48,16.61-.2,1.98,.08,5.23,.05,7.83,.02,2.04-.02,3.96-.13,5.97-.13,2.04,0,4.24,.05,6.15,.11,1.71,.05,3.42-.21,5.08,.01,.12,.02,3.04-.1,4.54-.09,3.03,.02,7.9-.22,8.46,.23,2.17-.04,4.28-.03,6.5,0,1.24,.01,2.68-.05,4.02-.08,3.2-.07,5.75,.17,9.73,.03,3.35-.11,8.23-.02,12.43-.01,3.82,0,7.65,0,11.45,.02,2.12,.01,4.36,.04,6.25,.1,1.89,.06,2.72,.28,5.48,.21,1.49-.04,2.43-.21,4.1-.02,1.09-.05,2.7-.08,3.13-.15,.46-.07-.18-.18-.33-.27,1.57,.05,3.25,.16,4.68,.14,4.21-.04,8.53-.1,12.39-.21,2.69-.08,4.57-.11,7.13,0,2.38,.1,5.11,.21,7.74,.21,2,0,3.95-.25,6.39-.01,.17,.02,1.27,.01,1.54,0,5.6-.41,12.19-.25,18.67-.15,.08,0,0,.05,.44,.13-.75-.01-1.14-.05-1.51-.05-.99,0-1.98,.02-2.97,.03,.12,.03,.24,.1,.37,.1,1.23,0,2.47-.01,4.11-.08,1.08-.05,2.61-.05,5.17-.07,.23,.02-.41,.06-1.05,.09,.52,.03,1.06,.08,1.56,.08,.95,0,1.88-.04,2.82-.06-.68-.04-1.36-.07-3.33-.11-.98-.19,1.67-.17,2.86-.13,5.74,.22,11.93,.17,17.95,.15,3.2,0,5.4,.09,8.73,.14-.19,.05-.79,.08-.78,.1,.02,.07,.31,.13,.49,.2,.51,0,1.45-.02,1.45-.03,0-.08-.15-.17-1.15-.28,1.08-.35,7.21-.31,10.89-.51,.29-.02,.7-.05,.78-.05,2.33,.1,4.61,.28,6.91,.28,1.92,0,3.66-.24,6.32-.03,.99,.08,2.82,.11,4.07,.18,.92,.05,1.53,.13,2.8,.19,.17,0-.17,0-.51,0,.2,.04,.31,.09,.67,.12,.11,0,.91-.02,1.39-.02-.35-.03-.69-.06-1.55-.09,15.1-.42,11.18-.63,25.79-.3,2.26,.05,6.15,.06,7.38-.03,3.5-.25,5.13,.06,7.62,.06-1.1,.15-2.25,.3-3.27,.45-.32,.05-.28,.11-.41,.16,1.03-.01,2.46,0,3-.04,.89-.07,.88-.19,1.8-.25,3.18-.21,6.2-.52,10.05-.58,3.46-.06,8.22,.11,11.88,.24,2.94,.11,4.11-.08,5.58-.08,1.72,0,3.04,.24,4.94,.28,2.9,.05,4.56-.11,5.41-.29,2.92,.02,6.07,0,8.66,.07,1.58,.04,1.94,.05,3.35-.01,8.01-.38,8.85-.37,15.72,.06,1.31,.08,2.85,.15,4.79,.22,.17,0-.17,0-.51,0,.2,.04,.31,.09,.67,.12,.1,0,.91-.02,1.39-.02-.35-.03-.69-.06-1.55-.09-.14-.11-1.39-.24,1.33-.32,4.25-.11,12.4-.18,17.84-.14,2.49,.02,6.4,.04,7.42-.06,3.88-.36,8.12-.1,11.16-.02,3.07,.08,5.3,.15,7.92,0,2.03-.11,3.18-.04,4.81,.05,1.02,.05,3.45,.09,4.08,.05,4.97-.31,9.49,.14,14.29,.03,.18,0,.98,.15,1.75,.22,1.35,.12,1.25,.11,2.93-.11,.58-.08,2.35-.11,3.57-.16,3.93-.17,7.55-.17,10.92,.07,2.55,.19,5.25,.3,7.8,0,4.76,0,8.96-.26,13.94-.14,.63,.02,1.01,.08,1.51,.12-.69,.01-1.51,.01-2.04,.04-.56,.03-1.26,.11-1.18,.12,.97,.06,2.49,.16,3.07,.14,2.57-.08,5.03-.19,7.22-.32,1.07-.06-3.68-.16-.25-.24,.91-.02,2.42,.09,3.75,.11,.31,0,1.33-.08,1.49-.13,.41-.13,1.99-.2,2.13-.05,.32,.33,5.34,.23,5.46,.21,2.45-.39,7.54,.16,10.14-.13,.1-.01,2.32,.03,2.78,.07,2.09,.22,5.41,.23,8.63,.28,1.04,.02,1.68,.19,2.95,0,.75-.11,1.82-.21,2.8-.31,1.68-.17,3.32-.16,5.94-.05,1.79,.07,4.3,.27,7.07-.02,2.23-.23,5.76-.15,8.47,.05,.68,.05,2.85,.09,3.05,.07,3.57-.33,5.88-.19,9.95,0,2.81,.14,7.63,.4,12.48,.1,.83-.05,4.43-.01,1.32,.17-2.91,.17,3.51,.38-.5,.54,1.41,.02,2.82,.04,4.23,.06,.24,.04,.49,.09,.73,.13,.52-.04,1.04-.08,2.3-.31-.03-.07-.47-.01-.67,.04-.17,.05-.05,.1-.06,.14,.77-.04,1.96-.06,2.2-.11,.27-.05-.3-.13-1.47-.08-1.5,.18-2.26,.18-3.03,.18,.46-.19-1.58-.47,3.91-.5,.37,0,.56-.18,.84-.27,.78-.05,1.55-.1,2.33-.15,3.5-.05,7.76-.43,10.03,.12,.22,.05,4.92,.07,7.31,.03,3.02-.05,6.04-.14,8.63-.26,2.63-.12,4.9,.3,7.23,0,.09-.01,.86-.02,1.04,0,1.6,.1,2.9,.25,4.78,.3,1.66,.04,3.76-.21,6,.03s2.74,.1,3.32-.09c.24-.08,2.53-.12,3.89-.18,.07,.38,2.99,.16,5.2,.12,2.17-.04,4.79-.11,6.5-.06,1.37,.04,1.67,.25,2.44,.41,0,.01,0-.01,0-.03-.6,.01-1.26,.02-1.75,.05-.14,0,.23,.06,.36,.09,.46-.02,.92-.05,1.38-.1,4.39-.24,7.32-.74,14.59-.36,.22,.01,1.03-.04,1.59-.04,2.06-.02,4.88-.09,6.04-.02,2.57,.14-1.1,.24-1.44,.37-.15,.06,1.31,.14,2.04,.2,.79-.04,1.96-.07,2.28-.12,.41-.07,.21-.15,.13-.23-.19-.18,.27-.28,3.63-.27,6.08,.02,12.19,.01,18.28,.03,1.03,0,2.86,.03,2.94,.06,1.1,.44,3.54,.24,6.51,.09,1.57-.08,4.7-.17,5.85-.12,4.23,.18,7.89-.11,11.99-.01,3.67,.09,8.29-.1,11.71,.16,.33,.03,3.01-.09,4.64-.14,1.95-.05,3.96-.13,5.93-.13,.87,0,1.7,.17,2.61,.27,.17,.02,.68,.03,.93,.03,6.65-.14,8.33,.35,12.93,.47,1.13,.03,2.15,.08,3.22,.12,.14-.07,.65-.16,.33-.22-.38-.07-1.37-.14-2.32-.19-.48-.03-1.5,0-2.23,0-.67,0-1.28-.04-1.91-.06,.37-.04,.65-.08,1.14-.11,2.8-.16,11.46-.2,14.17-.09,1.49,.06,3.81,.15,4.86,.11,3.43-.12,7.78-.24,10.37-.11,3.96,.2,6.31-.11,9.85-.03,3.42,.08,7.55,0,11.34,.03,2.06,.01,5.33,.16,5.82,.12,1.9-.15,6.89,.18,6.87-.21,0-.02,1.94-.03,2.97-.05-.05,.05-.11,.11-.16,.16l5.01,.43c3.62-.07,6.73-.35,11.07-.12,.4-.04,.77-.08,1.2-.12,3.15-.27,4.05-.27,6.86,.03,2.6,.27,5.18,.3,6.62,0,1.82-.36,6.34-.17,9.23-.29,1.26-.05,3.97,.07,6.07,.09,3.19,.04,7.57-.12,8.71,.27,.15,.05,5.61-.02,7.18,.08,4.84,.29,6.09,.04,8.1-.18,.61-.07,2.02-.1,3.06-.14,.62,.17,6.05,.05,4.72,.31-1.03,.21,1.41,.21,2.66,.29,1.33-.11,4.5-.19,2.99-.36-1.42-.16-3.12-.24,1.25-.24,1.86,0,4.48-.13,5.44-.08,2.38,.12,3.9,.12,5.67-.03,.55,.04,1.53,.07,1.59,.11,.25,.19,2.41,.22,3.78,.13,3.75-.23,7.99-.06,11.93-.1,.75,0,2.17,.1,2.56,.17,.69,.12,1.67,.19,2.2,.03,.53-.16,1.32-.23,3.59-.2,2.09,.03,4.16,.07,6.18,.11,2.45,.05,10.44,.09,13.81,.07,.53,0,1.17,.1,1.76,.18,0,.01,0-.01,0-.03-.6,.01-1.26,.02-1.75,.05-.14,0,.22,.06,.36,.09,.46-.02,.92-.05,1.38-.1,2.25-.11,4.5-.18,6.72-.25,.58-.02,1.1-.05,1.64-.07,3.45,.47,6.68,.02,10.08,0,3.81-.01,8.31,.2,11.46,.12,4.05-.1,7.83-.12,11.83-.11,.63,0,1.68,.09,1.75,.15,.19,.13-.61,.19-2.31,.07-1.71-.12-3.13-.08-4.77,.02-1.13,.07-2.63,.11-3.97,.16,1.29,.04,2.94,.05,3.81,.12,1.63,.12,2.57,.28,4.25,.4,1.12,.08,2.85-.06,3-.24,.06-.07,.53-.14,.94-.21,1.27-.2,6.71-.11,6.42-.42,.54,0,1.54,0,1.55,.01,.77,.45,3.64,.17,6.58,.11,3.71-.07,2.72,.16,2.83,.34,0,.01,0-.01,0-.03-.6,.01-1.26,.02-1.75,.05-.14,0,.23,.06,.36,.09,.46-.02,.92-.05,1.38-.1,.94-.12,1.71-.22,2.86-.29,1.31-.08,2.95-.19,4.47-.19,2.96,0,1.31,.19,1.96,.29,.46,.07,1.75,.11,2.68,.17,1.16-.09,2.31-.18,3.47-.27,1.67,.14,3.04,.14,5.59,.04,6.55-.26,13.41-.13,20.08,.02,2.83,.06,6.3,.31,7.18-.13,.01,0,1.5,0,2.25,0,1.39,.02,2.88,.03,4.08,.08,3.61,.14,6.52-.36,11-.01,2.11,.16,8.08-.1,11.36,.18,.26,.02,2.64-.01,2.87-.05,2.43-.42,7.85-.12,11.69-.21,5.47-.13,11.73-.04,16.68,.3,.17,0-.17,0-.51,0,.2,.04,.31,.09,.67,.12,.11,0,.91-.02,1.39-.02-.35-.03-.69-.06-1.55-.09-.42-.17-1.09-.4,3.46-.27l5.62,.23c1.43,.19,2.59,.18,5.73,.04,2.92-.13,6.59-.28,9.63-.25,1.97,.02,6.47,0,7.44,.32,.54,.18,6.35,.21,9.24,0,2.94-.21,6.07-.2,9.3-.17,3.99,.04,7.78,.14,11.36-.09,.87-.06,2.74-.05,4.16-.06,1.9,0,2.64,.03,1.18,.16-.69,.06-.46,.17-.64,.26,1.3,0,2.63-.01,3.91-.03,1.75-.02,3.76-.02,5.15-.09,1.27-.06,1.67-.2,2.84-.27,.5-.03,2.34-.02,2.91,.02,.59,.04,.86,.15,.45,.2-.74,.09-2.03,.15-3.2,.22-2.05,.12,.16,.16,.86,.22,1.26,.11,1.95,.11,2.58-.05,1.36-.33,3.94-.55,9.94-.48,1.44,.02,3.17-.1,4.86-.12,1.43-.02,2.99-.01,4.5-.01,2.51,0-.2,.33,3.23,.25,1.99-.04,3.66-.18,5.62-.2,4.03-.03,8.64-.1,12.15,0,9.95,.27,20,.09,29.98,.12,.94,0,1.31-.1,3.33-.05,4.75,.14,9.44,.12,14.76-.04,5.79-.17,12.16,.09,18.28,.15-.15,.05-.05,.12-.49,.14-.82,.04-1.96,.05-2.97,.07,.89,.03,1.8,.08,2.67,.08,1.37,0,3.92-.05,3.91-.07-.19-.34,4.85-.25,7.13-.36,1.41-.07,5.25,.08,7.91,.14,1.31,.03,2.37,.11,3.66,.15,.23,0,1.55-.1,1.49-.1-3.18-.26,1.25-.34,2.58-.34,4.77,0,9.54-.05,14.39,.08,5.11,.14,10.88,.23,15.42-.12,1.46-.11,2.01-.04,3.35,0,1.49,.06,4,.09,5.32,.04,5.29-.19,9.58-.21,13.36,.16,1.92,.19,3.92-.27,6.27-.03,1.66,.17,3.15,.16,5.91,.06,4-.14,8.04-.29,13.18-.03,3.08,.15,8.53-.01,12.58,.19,1.77,.09,4.21,0,5.84-.14,2.15-.18,4.71-.22,7.82-.07,3.69,.17,9.72,.16,12.54-.06,3.39-.27,7.32-.34,12.02-.29,3.84,.04,8.49,.2,11.25,.11,3.88-.13,7.37-.09,10.88-.08,4.63,.02,8.72-.06,12.49-.21,1.54-.06,2.3-.11,3.29,.01,.68,.08,1.2,.17,1.79,.26-2.83,.07-.71,.39-5.2,.42-2.49,.02-2.11,.25,.65,.38,.83,.04,.74,.04,2.16-.12,.48-.05,1.5-.08,2.78-.12,.17,0-.17,0-.51,0,.2,.04,.31,.09,.67,.12,.11,0,.91-.02,1.39-.02-.35-.03-.69-.06-1.55-.09-.5-.08-.86-.21-.4-.22,2.85-.09,5.81-.18,8.88-.23,2.56-.04,6.66,.07,7.72-.02,2.34-.19,4.78,.07,7.01-.08,1.56-.11,4.5-.13,6.91-.16,1.2-.02,3.71,.03,3.71,.04-.03,.24,.44,.19,3.51,.12,3.55-.09,8.46-.06,11.99,.04,2.84,.08,2.77,.07,3.04-.1,.06-.04,.77-.07,1.18-.11,3.7,.39,7.87-.05,11.7,.03,.42,0,.54,.08,.8,.16,0,.01,0-.01,0-.03-.6,.01-1.26,.02-1.75,.05-.14,0,.23,.06,.36,.09,.46-.02,.91-.05,1.38-.1,8.67-.25,17.66-.17,26.56-.16,1.09,0,2.49,.07,3.14,.14,.64,.06-.05,.22,2.26,.1,1.19-.06,2.28-.14,3.28-.22,1.6-.12,2.84-.21,5.06-.02,.59,.05,3.48,0,5.2-.04,6.52-.13,13.02-.25,18.54,.15,1.81,.13,2.24-.02,3.29-.05,1.91-.06,3.81-.13,5.84-.17,3.49-.05,7.66,.12,10.52-.15,.8,.2,6.35,.07,5.65,.37-.52,.22,1.72,.32,3.95,.41,.47,.02,1.44,0,2.06-.02,.19,0,.21-.08-.08-.1-2.3-.14-1.81-.29,.53-.37,2.9-.1,5.66-.36,9.36-.19,4.22,.2,7.42,.14,12.06,.03,6.49-.16,13.78-.15,20.64,.03,1.14,.03,3.69,.02,3.72,0,1.11-.41,3.54-.21,6.71-.11,2.73,.09,5.56,.24,9.7,.04,2.51-.12,7.39,0,11.2-.02,1.75,0,4.5-.02,5.02-.09,2.53-.34,5.88-.08,8.13-.04,7.12,.14,13.94,.28,21.11,.01,1.07-.04,2.96,0,4.36,.02q9.08,.18,20.09,0c1.44-.02,3.33,.03,4.43-.02,3.33-.14,5.35,.23,8.82,.07,2.68-.12,5.82,.1,9.34-.03,2.65-.1,6.72-.02,10.14,0,2.86,.01,5.93-.07,8.52,.13,.57,.04,3.77-.06,5.58-.12,2.09-.07,2.53,.27,5.45,.07,1.75-.12,6.11-.24,7.52-.18,6.9,.31,14.93-.03,21.66,.22,.16,0,.01,.05,0,.11,0,.01,0-.01,0-.03-.6,.01-1.26,.02-1.75,.05-.14,0,.23,.06,.36,.09,.46-.02,.91-.05,1.38-.1,2.51-.04,3.98-.3,7.69-.08,4,.24,9.91,.03,14.57,0,12.57-.08,25.68-.11,38.41,.1,1.45,.02,3.05,0,4.54,.01,3.59,.04,7.52-.1,10.81,.11,2.05,.13,7.39-.05,6.9,.33,2.89-.12,5.56-.16,8.34,.04,.27,.02,3.6-.13,5.13-.23,2.78-.18,4.06-.22,9.26-.2,3.43,0,6.89,0,10.29,.01,4.67,.03,9.65-.09,14.06,.15,.91,.05,4.13-.04,5.89-.11,5.49-.22,11.43-.16,17.27-.15,.9,0,1.8,.11,2.6,.17,.45,.04,.68,.08,1.01,.13,4.2-.32,10.13,0,14.72-.19,.92-.04,2.15-.11,2.79-.09,2.83,.08,6.22,.31,8.05,.26,3.06-.08,4.94-.09,8.05-.02,5.94,.14,12.2,.15,18.42,0,2.35-.06,6.57-.11,7.37-.04,2.87,.26,5.55-.12,7.32,.01,3.45,.27,3.88-.08,5.79-.1,.74-.01,1.83,0,2.37,.03,2.28,.13,6.43-.05,7.84,.22,4.72-.07,8.73,.35,14.36,.03,2.88-.16,8.79,.11,12.78-.13,.14,0,1.67,.07,2.29,.12,1.26,.1,2.13,.29,3.56,.31,1.73,.02,4.27-.05,5.77-.14,2.33-.14,4.15-.22,6.43-.01,10.36,.02,20.39,.33,30.8,.2,4.01-.05,7.37-.2,10.16,.12,.37,.04,2.47,.08,2.92,.05,5.92-.35,13.99,.05,20.05-.28,2.92-.16,5.84,.19,9.72,.04,2.5-.09,6.03-.05,9.33,.1,2.35,.11,6.77,.08,9.99,.03,3.02-.05,5.44,.3,8.58,.03,.54-.05,3.65-.04,4.26,.01,2.71,.23,6.31,.12,9.5,.15,2.23,.02,5.3-.04,6.62,.04,6.69,.4,14.67,.27,22.29,.31,1.84,0,3.79,0,5.5,.04,11.37,.26,22.88,.47,35.02,.46,3.43,0,6.76,0,8.92,.23,1.98,.22,5.05,.27,8.73,.26,3.8-.02,8.02-.06,11.31,.03,2.92,.08,6.45-.06,8.68,.14,8.46-.33,15.24,.26,23.46,.2,3.68-.03,6.29,.23,7.27,.49,.73,.19,2.96,.1,4.58,.13,.25,.1,.49,.19,.75,.29,.15,.06,.33,.11,.5,.16-.74,0-1.49,.02-2.21,0-1.32-.01-3.24-.34-3.74,.04-.1,.07-.12,.15-.48,.22-2.41,.46-2.45,.46,4.06,.52,4.45,.04,4.1,.16,1.61,.34-.27,.02-.25,.09,0,.1,1.12,.05,2.36,.08,3.56,.12-1.39,.02-2.86,.07-4.17,.06-7.01-.07-11.91,.32-18.41,.37-1.56,.01-3.94,.17-1.99,.36,1.2,.12,1.9,.26,3.24,.37,1.94,.16,4.09,.25,1.18,.5-1.72,.15-2.44,.27-5.46,.24-.59,0-1.28,.04-1.92,.06,.4,.03,.72,.07,1.22,.09,.93,.03,2.14,.04,2.94,.08,3.08,.16,4.71,.14,4.91-.15,.02-.03,1.97-.08,2.82-.06,.68,.01,1.31,.1,1.54,.16,1.24,.33-5.37,.4-5.13,.71-.8-.02-1.7-.04-2.39-.07-1.19-.06-2.15-.17-3.4-.19-2.13-.03-3.63,0-1.46,.19,.95,.08-.98,.19-3.14,.05-3.82-.24-5.28-.01-7.2,.12-.33,.02,.76,.14,1.19,.21-1.3-.02-2.6-.04-3.9-.06-.55,0-1.4-.05-1.57-.04-4.28,.29-10.01-.01-14.93,.19-4.43,.18-5.32,.11-8.65-.23-2.16-.22-2.12-.22-4.6-.03-.83,.06-1.9,.15-2.87,.15-11.07,0-22.19,.03-33.18-.04-4.83-.03-9.38-.27-14.18,0-.22,.01-.79,0-1.12,0-2.15-.06-.77-.55-6.59-.22-1.51,.08-5.89-.04-8.8-.1-2.53-.06-4.64-.29-7.53-.03-.28,.03-2.67-.02-3.72-.07-4.11-.2-8.63-.25-13.53-.23-2.86,0-6.05,.05-8.12-.15-2.57,.27-4.93,.1-7.31-.02-4.77,.27-9.4-.07-14.13-.01-3.52,.04-7.29-.1-10.75,.13-1.17,.08-4.91-.02-7.44-.05-2.48-.03-4.94-.1-7.38-.1-4.7,0-10.75,0-13.59-.11-3.39-.12-6.32-.27-9.8,.02-.96,.08-4.21,.04-6.42,.05-5.49,.01-10.92-.04-16.38,.12-2.26,.07-6.41,.25-9.03-.08-.53-.07-3.38-.05-5.15-.07-4.61-.06-9.91,.14-13.96-.17-.34-.03-1.98-.02-2.15,0-3.21,.4-7.99-.04-12.38,.11-3.57,.12-9.53,.1-13.67-.14-3.93,.25-9.53-.24-13.32,.14-.36,.04-2.35,.03-3.3,0-6.68-.21-13.8-.15-20.8-.17-2.33-.3-5.98-.03-9.01-.09-3.46-.07-7.33-.05-11-.09-2.48-.02-4.96-.11-7.36-.09-1.71,0-4.56,.21-4.73,.19-5.08-.39-11.84,.33-16.61-.12-5.71,0-11.42-.02-17.13-.02-.67,0-1.53,.02-1.97,.05-1.1,.08,.09,.31-2.82,.25-1.78-.04-3.96-.17-4.32-.29-.6-.19-2.34-.2-4.02-.17-7.84,.14-15.56,.23-23.36-.02-1.11-.04-3.4-.02-4.21,.03-3,.21-6.51,.08-9.72,.09-2.2,0-4.83-.13-6.61-.08-3.03,.08-5.08,.11-8.03-.03-1.85-.09-5.43,0-7.41-.09-1.94-.08-2.54-.09-4.27,0-1.39,.08-4.83,.15-5.26,.11-2.63-.22-3.46,.13-5.5,.06-1.85-.07-4.59-.19-5.75-.15-5.86,.22-12.54-.28-18.03,.11-.37,.03-2.47,0-2.93-.05-3.06-.29-5.31,.11-7.59,.04-2.69-.08-5.08-.18-8.24-.16-5.06,.04-8.39,0-12.4-.1-2.4-.05-5.2-.1-7.59-.07q-13.15,.18-27.9-.03c-1.43-.02-3.54-.04-4.4,.01-3.11,.19-5.63,.19-8.85,0-1.01-.06-3.56-.03-5.25,0-6.51,.11-13.15,.09-17.96,.12-3.4,.03-5.94-.26-9.74-.04-2.4,.14-5.77-.21-9.63-.02-1.23,.06-4.74-.23-7.92-.14-1.68,.05-2.84,.28-3.83-.06-.52-.18-4.25-.15-6.61,.03-.83,.06-1.86,.11-2.8,.17-3.12-.31-6.4,0-9.54-.02-2.1-.01-5.63,.14-6.04-.18-.19-.15-1.21-.17-2.24-.01-.58,.09-1.22,.18-2.14,.25-.41,.03-2.09,.04-2.28,.02-2.59-.27-4.69-.19-7.58,0-.71,.04-4.19-.07-6.04-.16-2.06-.09-3.23-.32-6.59-.14-.23,.01-2.12-.2-2.68,0-.48,.17-1.35,.19-3.58,.2-5.41,.04-11.24-.16-16.22,.13-4.43-.31-10.18-.07-15.07-.17-4.4-.09-8.6-.11-13.04-.01-1.25,.03-3.44,.02-4.23-.04-3.64-.26-6.68-.07-9.86,.03-4,.12-7.58,.26-12.22,.04-2.62-.13-6.58-.13-9.94-.19-1.91,.38-6.63-.22-9,.11-.23,.03-3.86,0-5.08-.06-3.29-.18-2.08,.03-2.89,.11-.57,.06-2.79,.1-3.48,.07-1.16-.05-1.68-.17-2.47-.26-.27,.1-.59,.19-.8,.29-.43,.19-2.33,.19-3.95,.1-2.33-.12-3.71-.34-8.79-.36-.58,0-.21,.04,.17,.08,.38-.03,.78-.05,1.15-.08,.78-.05,1.94-.1,2.21-.17,.25-.06-.47-.14-.76-.2-.54,.03-1.18,.04-1.61,.08-.93,.07-1.75,.15-1.17,.29,.31,.13-.81,.23-1.66,.22-2.04-.02-4.15-.16-5.87-.14-5.53,.08-9.88-.19-15.09-.19-1.07,0-2.16-.06-3.24-.09,.34,.09,.42,.19,1.08,.26,1.51,.17,1.51,.3-1.95,.29-5.26,0-11.13,.07-13.42-.4-.2-.04-2.61-.08-2.79-.07-2.58,.24-5.15-.09-7.27,0-2.2,.1-3.95,.24-5.76,.37-.74,.05-1.15,.13-1.71,.19-.2-.07-.39-.14-.61-.21-.29-.09,1-.29-2.66-.13-1.97,.08-5.01,.06-7.57,.06-2.17,0-2.84,.04-3.76,.19-1.41,.23-5.2,.07-7.91,.11,.39-.07,.73-.15,1.18-.22,.48-.07,1.06-.15,1.6-.22-1.03,0-2.46-.02-3.03,.01-1.94,.12-2.73,.14-3.15-.07-.1-.05-2.55-.14-3.12-.12-2.37,.09,.48,.14,.67,.21,.17,.07-.19,.14-.32,.21-.8-.03-1.57-.07-2.42-.09-1.9-.05-1.85-.04-2.3,.16-.1,.04-1.29,.12-1.34,.11-3.21-.15-6.14-.14-9.67-.01-3.66,.13-7.78-.23-11.77,0-.57-.08-1.2-.16-1.67-.24-.38-.07-.57-.14-.84-.21-.49,.05-1.19,.1-1.43,.15-1.4,.31-1.86,.33-8.29,.29-.98,0-2.91,.03-2.93,.06-.18,.34-2.31,.17-4.41,.09-.89-.03-2.27-.02-3.39,0-3.97,.04-4.34-.12-3.98-.32,.13-.08,.46-.2-.08-.22-.95-.05-2.5-.04-3.8-.05-1,.55-10.72,.35-13.75,.73-7.83-.31-15.75,.45-23.82-.01-1.34-.08-4.44-.01-7.95-.1-.81-.03-.33,.02,.15,.08,.36-.02,1.08-.05,1.02-.07-.29-.08-.8-.15-1.23-.23-.33,.04-.65,.08,.06,.22,.77,.34-2.32,.24-3.96,.22-1.56-.02-2.62-.18-4.22-.23-1.02-.03-3.45,.06-3.83,.02-3.76-.35-7.96-.18-10.2,.03-3.01,.29-7.79-.21-9.75,.16-.39-.06-.94-.12-1.14-.19-.34-.11,.84-.27-3.31-.32-.69-.02-.34,.01,.02,.04,.35-.02,.69-.05,1.04-.07-.45-.02-.87-.05-1.36-.07-.09,0-.47,.03,.31,.09-.27,.11-1.85,.15-2.84,.23-1.6,.13-2.81,.28-4.19,.42-2.35-.11-4.67-.22-7.08-.32-1.49-.06-3.42-.09-4.6-.17-3.13-.22-3.33-.07-3.18,.11,.13,.16-.65,.22-3.16,.23-5.08,0-10.4-.1-15.14,.13-.73,.04-2.81,.04-3.28,0-4.29-.35-7.22-.32-9.06,.12-1.64-.03-3.35-.19-4.85,.01-1.83-.07-3.65-.13-5.48-.2,.69-.03,1.35-.07,2.07-.1,.6-.02,1.28-.04,1.92-.06-.39-.03-.73-.09-1.2-.09-2.74-.03-4.77,.04-7.03,.16-4.36,.24-7.73,.21-9.51-.13-1.61-.32-2.4-.14-3.78-.04-1.28,.09-2.37,.19-3.47,.29-2.53,.23-6.35,.23-9.17,0-.63-.05-1-.14-1.75-.15-5.63-.12-5.58-.12-7.37-.35-.4-.05-1.46-.08-3.43-.21-.81-.03-.33,.02,.15,.08,.36-.02,1.08-.05,1.02-.07-.29-.08-.8-.15-1.23-.23-.33,.04-.65,.08,.07,.22,2.72,.32-4.61,.56,1.06,.8-.74,.07-1.35,.19-2.24,.2-2.68,.03-8.62-.18-11.52-.36-.94-.06-2.36-.1-3.61-.11-5.26-.02-10.97,0-15.29,.16-4.41,.16-7.33,.14-10.85-.03Zm-549.64-1.47c.77-.05,1.55-.1,4.71-.32-.7,.03-1.53,.06-2.37,.09,.35,.02,.79,.07,1.03,.07,1.15-.02,2.24-.05,3.36-.08-.57-.02-1.15-.04-4.41,.09-.78,.05-1.55,.1-2.34,.22,0-.02,0-.05,.02-.07-.6,.01-1.26,.02-1.75,.05-.14,0,.23,.06,.36,.09,.46-.02,.92-.05,1.39-.14Zm-86.52-1.72c.35,.03,.71,.06,1.06,.09,.35-.02,.69-.05,1.04-.07-.45-.02-.87-.05-1.36-.07-.08,0-.47,.03,2.37,.14-.34,0-.68,0-1.02,0,.2,.04,.31,.09,.67,.12,.11,0,.91-.02,1.39-.02-.35-.03-.69-.06-4.14-.19Zm-282.29,2.05c.35,.03,.71,.06,1.06,.09,.34-.02,.69-.05,1.04-.07-.45-.02-.87-.05-1.36-.07-.09,0-.47,.03,2.37,.14-.34,0-.68,0-1.02,0,.2,.04,.31,.09,.67,.12,.1,0,.91-.02,1.39-.02-.35-.03-.69-.06-4.14-.19ZM517.74,2.13c-.45,.02-.9,.05-1.35,.07,.34,.02,.67,.05,1.01,.07,.36-.03,.76-.06,1.04-.09,.05,0-.43-.03-2.07,.16,0-.02,.01-.05,.01-.07-.6,.01-1.26,.02-1.75,.05-.14,0,.23,.06,.36,.09,.46-.02,.92-.05,2.75-.28Zm18.75,2.55s.01-.05,.02-.07c-.6,.01-1.26,.02-1.75,.05-.14,0,.22,.06,.36,.09,.46-.02,.92-.05,3.77-.3-.7,.03-1.53,.06-2.37,.09,.35,.02,.79,.07,1.04,.07,1.15-.02,2.24-.05,3.36-.08-.58-.02-1.15-.04-4.42,.16ZM1315.31,1.52c-.45,.02-.9,.05-1.35,.07,.34,.02,.67,.05,1.01,.07,.36-.03,.76-.06,1.04-.09,.05,0-.43-.03-1.64,.23-.57-.05-1.03-.1-1.49-.14-.42,.04-1.19,.07-1.17,.11,.04,.06,.53,.13,.83,.19,.54-.05,1.08-.09,2.77-.44Zm-10.69,.13c.4,.05,.88,.1,1.36,.16,.36-.02,1.08-.05,1.02-.07-.29-.08-.8-.15-1.23-.23-.33,.04-.65,.08,2.3,.3-.34,0-.68,0-1.02,0,.2,.04,.31,.09,.67,.12,.11,0,.91-.02,1.39-.02-.35-.03-.69-.06-4.48-.26Zm1235.15,4.88c-1.19-.07-1.58-.11-1.95-.11-.99,0-1.98,.02-2.97,.03,.12,.03,.24,.1,.37,.1,1.23,0,2.47-.01,5.35-.47-.56,.09-1.18,.18-1.61,.27-.07,.02,.64,.05,.99,.07,1.09-.08,2.19-.17,3.28-.25-.59-.02-1.18-.04-3.46,.36ZM510.65,2.42c-1.19,.08-2.61,.14-3.41,.24-.39,.04,.39,.14,.64,.21,1.29-.1,2.64-.2,3.79-.31,.18-.02-.59-.08-6.6-.07,.35,.03,.71,.06,1.06,.09,.35-.02,.69-.05,1.04-.07-.45-.02-.87-.05-1.36-.07-.08,0-.47,.03,4.86-.01ZM2614.36,7.02s.01-.05,.02-.07c-.6,.01-1.26,.02-1.75,.05-.14,0,.23,.06,.36,.09,.46-.02,.92-.05-3.19-.47,3.24,.07,4.31,.07,4.55,.11,.63,.08-1.33,.41,2.69,.12,.99-.07,1.57-.21,1.36-.31-.16-.07-2.38-.19-2.88-.18-2.05,.07-3.82,.17-5.59,.27-.07,0,.84,.09,4.43,.39Zm-430.91,.54c.02-.1,.05-.13,.03-.15-.07-.12,.62-.27-2.33-.26-1.39,0-2.76,.03-4.14,.05,.51,.1,.99,.21,1.55,.31,.12,.02,.49,.04,.76,.05,1.03,.07,2.07,.13,3.11,.19,.46-.09,.92-.18,1.02-.2Zm-38.92-5.87c-3.12,.06-6.95,.61-5.82,.84,.11,.02,.61,.06,.76,.05,.54-.01,1.24-.03,1.48-.06,1.64-.21,3.24-.42,4.7-.64,.25-.04-.13-.1-.35-.14-.09-.02-.51-.03-.77-.05ZM303.57,5.95c-2.42,.02-6.92,.55-5.77,.69,.24,.03,1.18,.06,1.54,.05,2.97-.09,5.81-.42,5.37-.62-.09-.04-.74-.08-1.14-.11Zm128.2-2.65c-.56-.09-1.32-.21-2.07-.33-1.21,.04-2.59,.07-3.61,.13-3.28,.18,.95,.21,1.66,.31,.48,.06,1.96,.1,2.99,.14,.27-.07,.55-.14,1.04-.26Zm265.49,3.54c-.13,.02-.69,.06-.81,.12-.64,.27,1.39,.42,5.04,.46,1.23,.01,2.65-.04,3.98-.07-.92-.03-2.07-.04-2.72-.09-1.87-.13-3.55-.27-5.48-.43Zm18.05-.27c-.63-.15-1.09-.26-1.55-.38-1.17,.09-3.1,.18-3.27,.28-.16,.09,1.57,.2,2.48,.3,.8-.07,1.6-.14,2.34-.2Zm792.23,.16c.97,.07,1.87,.18,2.54,.17,2.18-.02,4.26-.08,6.39-.13-.84-.07-1.88-.22-2.48-.21-2.2,.03-4.26,.11-6.45,.17ZM352.53,1.56c2.84,.04,4.61,.08,6.42,.1,.53,0,1.17-.05,1.76-.07-1.73-.08-3.42-.16-5.25-.23-.23,0-1.25,.09-2.92,.2Zm1028.96-.29c-2.87,.19-4.12,.27-5.38,.35,1.45,.03,2.93,.1,4.34,.09,.81,0,1.86-.11,2.15-.19,.23-.06-.53-.13-1.11-.26Zm-133.65,5.09c1.68,.14,2.99,.25,4.3,.36,.39-.06,1.09-.13,1.12-.19,.04-.11,.92-.27-2.08-.27-.86,0-1.71,.05-3.33,.1Zm-450.65,.47c1.11,.03,2.2,.07,2.31,.06,1.51-.13,2.88-.27,4.28-.41-.63-.02-1.68-.06-1.84-.05-1.64,.12-3.14,.26-4.76,.4Zm229.73-2.06c-.97,.02-1.51,.03-1.56,.04-.14,.03-.28,.08-.03,.1,.99,.07,2.05,.13,3.24,.18,.45,.02,1.33-.01,2.01-.02-.25-.05-.28-.12-.79-.16-.91-.06-2.1-.11-2.87-.15Zm1949.66,3.09c-1.84-.09-3.28-.18-4.86-.24-.36-.02-1.23,.03-1.87,.04,1.35,.09,2.63,.18,4.09,.26,.27,.02,1.22-.03,2.64-.06Zm-188.4-1c.47,.09,.93,.17,1.39,.26,1.05-.07,3.08-.15,2.93-.19-.29-.1-1.8-.18-2.8-.26-.47,.06-.93,.12-1.52,.2Zm-2149.8-.46c-.68,.07-1.53,.12-1.39,.14,.98,.12,2.17,.24,3.29,.35,.39-.04,1.24-.09,1.09-.11-.83-.13-1.9-.25-3-.38ZM310.38,1.38c-.89-.03-1.64-.08-2.26-.08-1.5,.01-2.94,.06-4.4,.09,1.02,.07,1.96,.19,3.08,.2,.95,0,2.09-.12,3.58-.21ZM2376.16,6.33c1.38,.1,2.39,.22,3.42,.22s2.09-.12,3.14-.19c-1.39-.03-2.75-.08-4.19-.1-.66,0-1.47,.04-2.37,.07Zm-128.07-4.2c-1.83,.05-3.66,.09-5.42,.15-.2,0-.04,.07-.05,.1,2.02-.02,4.05-.03,6.05-.05,.15,0,.13-.09,.05-.14-.03-.02-.43-.04-.63-.05Zm-316.74-.06c1.61,.08,2.46,.16,3.52,.17,.57,.01,1.49-.07,2.25-.11-.76-.06-1.37-.15-2.35-.19-.41-.02-1.59,.05-3.42,.12Zm-52.83,4.72c1.56,.02,2.73,.06,3.83,.05,1.02,0,1.98-.06,2.96-.1-1.02-.07-2.1-.19-3.04-.19-1.12,0-2.11,.12-3.75,.23Zm-25.13,.02c.33,.07,.37,.1,.56,.11,.47,.01,1.24,.02,1.5,0,1.01-.07,1.99-.14,2.72-.22,.28-.03-.14-.09-.24-.14-.78,.02-1.76,.02-2.29,.05-.97,.06-1.67,.14-2.24,.19ZM1428.48,1.85c.02-.1,.13-.2,0-.3-.03-.02-.94-.04-1.44-.06-.05,.19-.1,.38-.15,.57,.52-.02,1.34-.03,1.5-.05,.26-.04,.09-.1,.1-.15Zm-56.49,2.21c-1.42,.09-2.49,.15-3.57,.22,1.02,.07,2.04,.14,3.06,.21,.5-.1,1.17-.19,1.43-.29,.11-.04-.61-.1-.92-.14Zm-219.07,2.71c-.85-.05-1.69-.11-2.71-.14-.42-.01-1.24,.03-1.88,.04,.99,.09,1.98,.18,2.97,.26,.38-.04,.77-.08,1.61-.16ZM712.57,1.98c-.45,.07-1.1,.14-1.32,.21-.1,.03,.66,.08,1.02,.12,1.03-.09,2.05-.17,3.08-.26-.63-.02-1.26-.03-2.78-.07Zm1883.08,5.23c-2.92-.08-3.85-.13-4.11-.12-.93,.05-1.64,.12-2.43,.18,.61,.03,1.32,.08,1.8,.07,1.32-.02,2.54-.07,4.74-.14ZM412.4,2.92c-1.31,.03-2.6,.07-3.89,.1,.95,.03,1.92,.08,2.86,.07,1.35,0,2.68-.04,4.01-.07-.91-.03-1.82-.07-2.98-.11Zm1477.5,3.62c.8,.09,1.16,.13,1.52,.17,1.04-.08,2.08-.17,3.12-.25-.63-.02-1.42-.06-1.85-.05-1.04,.03-1.91,.09-2.79,.13ZM2940.37,1.99c.82,.09,1.2,.13,1.57,.16,1.01-.09,2.03-.17,3.04-.26-.63-.02-1.45-.06-1.87-.04-1.03,.03-1.88,.09-2.74,.14Zm-917.62,1.16c-1.18,.07-2.26,.14-3.34,.2,.94,.03,2.4,.09,2.73,.07,.87-.05,1.3-.14,1.78-.22,.04,0-.91-.04-1.16-.05Zm-871.46,.16c-.5-.09-.99-.18-1.48-.26-.4,.06-1.14,.13-1.11,.19,.04,.09,.64,.18,1,.27,.48-.06,.96-.12,1.58-.2Zm295.6-1.24c-1.28,.06-1.86,.08-2.44,.11,1.28,.07,2.56,.14,3.85,.21,.24-.04,.85-.1,.65-.13-.5-.07-1.38-.13-2.06-.19Zm721.75,4.91c-1.06,.09-2.07,.18-3.08,.26,.62,.02,1.55,.06,1.81,.05,.93-.05,1.77-.11,2.35-.18,.17-.02-.61-.08-1.09-.13ZM387.92,1.59c-1.06-.07-2.09-.15-3.11-.22-.39,.06-1.37,.16-1.07,.18,.76,.06,2.06,.09,3.21,.12,.12,0,.65-.06,.98-.09ZM1807.26,7.24c.8,.09,1.16,.13,1.52,.17,1.04-.08,2.08-.17,3.12-.25-.63-.02-1.43-.06-1.85-.05-1.04,.03-1.91,.09-2.79,.13Zm-736.95-.29c-.5-.09-.99-.18-1.48-.26-.4,.06-1.14,.13-1.11,.19,.04,.09,.64,.18,1.01,.27,.48-.06,.96-.12,1.58-.2Zm-541.23-1.89c.8,.09,1.16,.13,1.52,.17,1.04-.08,2.08-.17,3.12-.25-.63-.02-1.42-.06-1.85-.05-1.04,.03-1.91,.09-2.79,.13Zm688.48-.91c-.5-.09-.99-.18-1.48-.26-.39,.06-1.13,.13-1.1,.19,.04,.09,.64,.18,1,.27,.48-.06,.96-.12,1.58-.2Zm80.18,1.13c-.65-.18-.99-.27-1.32-.36-.51,.05-1.42,.09-1.44,.14-.04,.09,.4,.19,.65,.28,.85-.02,1.71-.04,2.12-.05Zm1142.42,1.27c1.35,.07,2.63,.14,3.91,.21,.27-.04,.94-.1,.73-.12-.72-.06-1.66-.12-2.68-.16-.3-.01-1.14,.04-1.96,.07ZM1606.32,1.61c-.45,.07-1.09,.14-1.32,.21-.1,.03,.65,.08,1.02,.12,1.03-.09,2.05-.17,3.08-.26-.63-.02-1.26-.03-2.79-.07Zm393.46,5.95c-2.92-.08-3.85-.13-4.11-.12-.93,.05-1.64,.12-2.43,.18,.61,.03,1.32,.08,1.8,.07,1.32-.02,2.54-.07,4.74-.14Zm-856.15-1.45c-1.3,.05-1.89,.08-2.48,.1,1.25,.07,2.51,.14,3.76,.21,.25-.04,.88-.1,.69-.13-.47-.07-1.32-.13-1.97-.19Zm-440.17,.41c.51,.06,.83,.12,1.11,.12,1.01,0,2.01-.03,3.01-.04-.28-.03-.53-.1-.85-.1-1,0-2.03,.01-3.27,.02Zm31.91-.11c-.79,0-1.74,0-1.76,.01-.13,.07-.12,.14-.05,.2,0,0,1.41,0,1.43,0,.2-.07,.26-.13,.37-.21Zm42.53-4.2c-.78,.03-1.68,.06-2.59,.09,.57,.03,1.18,.08,1.72,.07,.98,0,1.91-.04,2.87-.07-.57-.03-1.15-.05-1.99-.09Zm5.81,4.08c.51,.06,.83,.12,1.1,.12,1.01,0,2.01-.03,3.01-.04-.28-.03-.53-.1-.84-.1-1,0-2.03,.01-3.27,.02Zm18.75-3.72c.77-.03,1.68-.06,2.59-.09-.57-.03-1.18-.08-1.71-.07-.98,0-1.91,.04-2.87,.07,.57,.03,1.14,.05,1.99,.09Zm40.32,0c-1.76,.05-2.39,.06-3.03,.08,.65,.03,1.23,.08,1.97,.1,.52,.01,1.24-.03,1.88-.05-.34-.06-.67-.11-.82-.13Zm19.45,.86c.51,.06,.83,.12,1.1,.12,1.01,0,2.01-.03,3.01-.04-.28-.03-.53-.1-.84-.1-1,0-2.03,.01-3.27,.02Zm14.94,2.54c.36,.01,1.16,.04,1.97,.06,.27-.04,.86-.09,.73-.13-.19-.05-.91-.09-1.4-.14-.27,.04-.54,.08-1.3,.2Zm104.38-4.12c-1.24-.01-2.26-.03-3.26-.03-.32,0-.59,.06-.88,.1,.99,.02,1.98,.05,2.99,.05,.27,0,.62-.06,1.16-.12Zm77.45,.36c-.85,.03-1.78,.06-1.76,.07,.05,.07,.42,.14,.66,.2,.51-.02,1.42-.04,1.45-.06,.07-.07-.19-.14-.34-.22Zm87.99,.09c-.2,.08-.48,.15-.44,.22,.01,.02,.92,.04,1.42,.06,.27-.07,.67-.13,.75-.2,.02-.02-.9-.04-1.73-.08Zm7.63,2.8c-.85,.03-1.78,.06-1.76,.07,.05,.07,.42,.14,.66,.2,.51-.02,1.42-.04,1.44-.06,.08-.07-.19-.14-.34-.22Zm46.6-.1c.86-.04,1.44-.06,2.03-.09-.94-.03-1.86-.07-2.84-.07-.53,0-1.16,.05-1.74,.07,.9,.03,1.79,.06,2.55,.09Zm43.31,1.96c-.7-.12-.96-.16-1.21-.2-.51,.04-1.25,.08-1.46,.13-.15,.04,.43,.08,.68,.13,.82-.02,1.63-.05,1.99-.06ZM416.1,1.87c-.2,.08-.48,.15-.44,.22,.02,.02,.92,.04,1.42,.06,.27-.07,.67-.13,.75-.2,.02-.02-.9-.04-1.73-.08Zm911.98,3.64c-.16,.02-.52,.08-.88,.13,.63,.02,1.33,.06,1.86,.05,.74-.01,1.34-.06,2.01-.09-.63-.02-1.25-.04-2.99-.09Zm14.59,.7c-1.24-.01-2.26-.03-3.26-.03-.32,0-.59,.06-.89,.1,.99,.02,1.98,.05,2.99,.05,.27,0,.62-.06,1.15-.12Zm41.62,.86c-.7-.12-.96-.16-1.21-.2-.51,.04-1.25,.08-1.46,.13-.15,.04,.43,.08,.68,.13,.82-.02,1.63-.05,1.99-.06Zm129.17-3.97c-.2,.08-.48,.15-.44,.22,.01,.02,.92,.04,1.42,.06,.27-.07,.67-.13,.75-.2,.02-.02-.9-.04-1.73-.08Zm38.63-1.17c-.79,0-1.74,0-1.76,.01-.13,.07-.12,.14-.05,.2,0,0,1.41,0,1.43,0,.21-.07,.26-.13,.37-.21Zm-.89-.38c-.16,.02-.52,.08-.88,.13,.63,.02,1.33,.06,1.86,.05,.74-.01,1.35-.06,2.01-.09-.63-.02-1.25-.04-2.99-.09Zm43.49,.2c-.16,.02-.52,.08-.87,.13,.63,.02,1.33,.06,1.86,.05,.74-.01,1.34-.06,2.01-.09-.63-.02-1.25-.04-2.99-.09ZM503.48,6.83c.36,.01,1.16,.04,1.97,.06,.27-.04,.86-.09,.73-.13-.19-.05-.91-.09-1.4-.14-.27,.04-.54,.08-1.3,.2Zm1128.3,.26c-.19,.08-.48,.15-.44,.22,.01,.02,.92,.04,1.42,.06,.27-.07,.66-.13,.75-.2,.02-.02-.9-.04-1.73-.08Zm186.05-5.57c-.86,.04-1.44,.06-2.03,.09,.94,.03,1.86,.07,2.84,.08,.53,0,1.16-.05,1.75-.07-.9-.03-1.79-.06-2.55-.09Zm8.53,4.7c.51,.06,.83,.12,1.1,.12,1.01,0,2.01-.03,3.01-.04-.28-.03-.53-.1-.84-.1-1,0-2.03,.01-3.27,.02Zm-1294.88,.91c.51,.06,.83,.12,1.11,.12,1.01,0,2.01-.03,3.01-.04-.28-.03-.53-.1-.85-.1-1,0-2.03,.01-3.27,.02ZM1831.26,2.08c.36,.01,1.16,.04,1.97,.06,.27-.04,.86-.09,.73-.13-.19-.05-.91-.09-1.4-.14-.27,.04-.54,.08-1.3,.2Zm22.95,.74c.77-.03,1.68-.06,2.59-.09-.57-.03-1.18-.08-1.71-.07-.98,0-1.91,.04-2.87,.07,.57,.03,1.15,.05,1.99,.09Zm12.89-.34c-1.76,.05-2.39,.06-3.03,.08,.65,.03,1.23,.08,1.97,.1,.52,0,1.25-.03,1.88-.05-.34-.06-.67-.11-.82-.13Zm18.43,.17c-.16,.02-.52,.08-.88,.13,.63,.02,1.33,.06,1.86,.05,.74-.01,1.35-.06,2.01-.09-.63-.02-1.25-.04-2.99-.09Zm101-.83c-.16,.02-.52,.08-.88,.13,.63,.02,1.33,.06,1.86,.05,.74-.01,1.35-.06,2.01-.09-.63-.02-1.25-.04-2.99-.09Zm14.14,3.64c.51,.06,.83,.12,1.11,.12,1.01,0,2.01-.03,3.01-.04-.28-.03-.53-.1-.85-.1-1,0-2.03,.01-3.27,.02Zm20.86-3.73c-.85,.03-1.78,.06-1.76,.07,.05,.07,.41,.14,.66,.2,.51-.02,1.42-.04,1.44-.06,.08-.07-.19-.14-.34-.22Zm34.97,5.74c-.6,.06-1.35,.1-1.3,.14,.09,.07,.66,.13,1.02,.19,.39-.04,1.11-.08,1.1-.12-.01-.07-.48-.13-.82-.21Zm152.67-.13c-.2,.08-.48,.15-.44,.22,.01,.02,.92,.04,1.42,.06,.28-.07,.67-.13,.75-.2,.02-.02-.9-.04-1.73-.08Zm218.37-.29c-1.76,.05-2.39,.06-3.03,.08,.65,.03,1.23,.08,1.97,.1,.52,0,1.24-.03,1.88-.05-.34-.06-.67-.11-.82-.13Zm27.21-3.32c.51,.06,.83,.12,1.11,.12,1.01,0,2.01-.03,3.01-.04-.28-.03-.53-.1-.85-.1-1,0-2.03,.01-3.27,.02Zm132.11,2.92c-1.24-.01-2.26-.03-3.26-.03-.32,0-.59,.06-.89,.1,1,.02,1.98,.04,2.99,.05,.27,0,.62-.06,1.16-.12Zm10.51-.21c-.16,.02-.52,.08-.88,.13,.63,.02,1.33,.06,1.86,.05,.74-.01,1.35-.06,2.01-.09-.63-.02-1.25-.04-2.99-.09Zm166.04-4.95c-.16,.02-.52,.08-.88,.13,.63,.02,1.33,.06,1.86,.05,.74-.01,1.34-.06,2.01-.09-.62-.02-1.25-.04-2.99-.09Zm159.27,.97c.86-.04,1.44-.06,2.03-.09-.94-.03-1.86-.07-2.84-.08-.53,0-1.16,.05-1.75,.07,.9,.03,1.79,.06,2.55,.09Zm27.26-.72c-.79,0-1.74,0-1.76,.01-.13,.07-.12,.14-.05,.2,0,0,1.41,0,1.43,0,.2-.07,.26-.13,.37-.21Zm349.3,7c.51,.06,.83,.12,1.11,.12,1.01,0,2.01-.03,3.01-.04-.28-.03-.53-.1-.85-.1-1,0-2.03,.01-3.27,.02ZM276.78,6.75c-.3-.02-.55-.04-.8-.06-.26,.03-.61,.07-.74,.1-.05,.01,.45,.03,.71,.05,.28-.03,.56-.07,.84-.1Zm82.97-2.24c-.3-.02-.55-.04-.8-.06-.26,.03-.61,.07-.74,.1-.05,.01,.45,.03,.7,.05,.28-.03,.56-.07,.84-.1Zm50.03,1.8c-.26-.03-.53-.07-.79-.1-.26,.02-.77,.04-.73,.05,.11,.04,.45,.07,.69,.1,.26-.02,.52-.03,.83-.05Zm-.5-3.02c-.31,.02-.57,.04-.82,.05,.51,.02,.99,.04,1.53,.05,.19,0,.51-.03,.76-.05-.49-.02-.99-.04-1.46-.06Zm19.96-2.27c-.3-.02-.55-.04-.8-.06-.26,.03-.61,.07-.74,.1-.05,.01,.45,.03,.71,.05,.28-.03,.56-.07,.84-.1Zm6.87,0c-.3-.02-.55-.04-.8-.06-.26,.03-.61,.07-.74,.1-.04,.01,.45,.03,.71,.05,.28-.03,.56-.07,.84-.1Zm13.65,.48c-.3-.02-.55-.04-.8-.06-.26,.03-.61,.07-.74,.1-.05,.01,.45,.03,.7,.05,.28-.03,.56-.07,.84-.1Zm31.11,.75c-.26,.02-.77,.04-.73,.05,.11,.04,.45,.07,.69,.1,.26-.02,.77-.04,.73-.05-.11-.04-.45-.07-.69-.1Zm6.64,1.09c-.26,.02-.77,.04-.73,.05,.11,.04,.45,.07,.69,.1,.26-.02,.77-.04,.73-.05-.11-.04-.45-.07-.69-.1Zm11.53,3.48c-.3-.02-.55-.04-.8-.06-.26,.03-.61,.07-.74,.1-.04,.01,.45,.03,.71,.05,.28-.03,.56-.07,.84-.1Zm57.47-.87c-.3-.02-.55-.04-.8-.06-.26,.03-.61,.07-.74,.1-.05,.01,.45,.03,.7,.05,.28-.03,.56-.07,.84-.1Zm1,.7c.48-.02,.99-.04,1.49-.05-.25-.02-.55-.05-.74-.05-.54,0-1.03,.03-1.55,.05,.25,.02,.5,.03,.8,.06Zm442.49,.45c-.26,.02-.77,.04-.73,.05,.11,.04,.45,.07,.69,.1,.26-.02,.77-.04,.73-.05-.11-.04-.45-.07-.69-.1Zm200.68-.81c.25,.02,.55,.05,.74,.05,.54,0,1.04-.03,1.55-.05-.25-.02-.55-.05-.74-.05-.54,0-1.04,.03-1.55,.05Zm5.77-4.05c.26,.03,.53,.07,.8,.1,.26-.02,.77-.04,.73-.05-.11-.04-.45-.07-.69-.1-.26,.02-.52,.03-.83,.05Zm4.1,4.58c.48-.02,.98-.04,1.49-.05-.25-.02-.55-.05-.74-.05-.54,0-1.04,.03-1.55,.05,.25,.02,.5,.04,.8,.06Zm1.84-3.29c-.26-.03-.52-.07-.79-.1-.26,.02-.77,.04-.73,.05,.11,.04,.45,.07,.69,.1,.26-.02,.52-.03,.83-.05Zm-387.45-1.38c-.48,.02-.99,.04-1.49,.05,.25,.02,.55,.05,.74,.05,.54,0,1.04-.03,1.55-.05-.25-.02-.5-.04-.8-.06Zm394.34,4.45c.26,.03,.52,.07,.79,.1,.26-.02,.77-.04,.73-.05-.11-.04-.45-.07-.69-.1-.26,.02-.52,.03-.83,.05Zm4.43-4.68c-.48,.02-.99,.04-1.49,.05,.25,.02,.55,.05,.74,.05,.54,0,1.04-.03,1.55-.05-.25-.02-.5-.04-.8-.06Zm-407.23,.74c.25,.02,.55,.05,.74,.05,.54,0,1.04-.03,1.55-.05-.25-.02-.55-.05-.74-.05-.54,0-1.04,.03-1.55,.05Zm-9.36-.65c-.3-.02-.55-.04-.8-.06-.26,.03-.61,.07-.74,.1-.05,.01,.45,.03,.71,.05,.28-.03,.56-.07,.84-.1Zm208.04,.01c-.48,.02-.99,.04-1.49,.05,.25,.02,.55,.05,.74,.05,.54,0,1.04-.03,1.55-.05-.25-.02-.5-.03-.8-.06Zm242.47,4.3c-.3-.02-.55-.04-.8-.06-.26,.03-.61,.07-.74,.1-.04,.01,.46,.03,.71,.05,.28-.03,.56-.07,.84-.1Zm4.37-4.37c-.31,.02-.57,.04-.83,.05,.51,.02,.99,.04,1.53,.05,.19,0,.51-.03,.76-.05-.49-.02-.99-.04-1.46-.06Zm10.4-.42c-.3-.02-.55-.04-.8-.06-.26,.03-.61,.07-.74,.1-.05,.01,.45,.03,.71,.05,.28-.03,.56-.07,.84-.1Zm10.95,2.38c-.26-.03-.53-.07-.79-.1-.26,.02-.77,.04-.73,.05,.11,.04,.45,.07,.69,.1,.26-.02,.52-.03,.83-.05Zm-.23,2.61c.25,.02,.55,.05,.74,.05,.54,0,1.03-.03,1.55-.05-.25-.02-.55-.05-.74-.05-.54,0-1.04,.03-1.55,.05Zm1.38-4.94c.3,.02,.55,.04,.8,.06,.26-.03,.61-.07,.74-.1,.05-.01-.45-.03-.71-.05-.28,.03-.56,.07-.84,.1Zm-499.49,5.13c.31-.02,.57-.04,.83-.05-.51-.02-.99-.04-1.53-.05-.19,0-.51,.03-.76,.05,.49,.02,.99,.04,1.46,.06Zm511.82-.02c.25,.02,.55,.05,.74,.05,.54,0,1.04-.03,1.55-.05-.25-.02-.55-.05-.74-.05-.54,0-1.03,.03-1.55,.05Zm8.59-4.23c-.31,.02-.57,.04-.83,.05,.51,.02,.99,.04,1.53,.05,.19,0,.51-.03,.76-.05-.49-.02-.99-.04-1.47-.06Zm-383.66-.76c-.26-.03-.52-.07-.79-.1-.26,.02-.77,.04-.73,.05,.11,.04,.45,.07,.69,.1,.26-.02,.52-.03,.83-.05Zm-2.12,4.57c-.31,.02-.57,.04-.83,.05,.51,.02,.99,.04,1.53,.05,.19,0,.51-.03,.76-.05-.5-.02-.99-.04-1.46-.06Zm124.37,.12c-.48,.02-.98,.04-1.49,.05,.25,.02,.55,.05,.74,.05,.54,0,1.04-.03,1.55-.05-.25-.02-.5-.03-.81-.06ZM1368.07,1.89c-.48,.02-.99,.04-1.49,.05,.25,.02,.55,.05,.74,.05,.54,0,1.04-.03,1.55-.05-.25-.02-.5-.03-.8-.06Zm21.73,4.03c-.26,.02-.77,.04-.73,.05,.11,.04,.45,.07,.69,.1,.26-.02,.77-.04,.73-.05-.11-.04-.45-.07-.69-.1Zm7.03,.8c-.48,.02-.99,.04-1.49,.05,.25,.02,.55,.05,.74,.05,.54,0,1.04-.03,1.55-.05-.25-.02-.5-.03-.8-.06Zm6.87,0c-.48,.02-.99,.04-1.49,.05,.25,.02,.55,.05,.74,.05,.54,0,1.03-.03,1.55-.05-.25-.02-.5-.03-.81-.06Zm.99-4.65c-.48,.02-.99,.04-1.49,.05,.25,.02,.55,.05,.74,.05,.54,0,1.04-.03,1.55-.05-.25-.02-.5-.03-.8-.06Zm2.96,4.5c-.31,.02-.57,.04-.83,.05,.51,.02,.99,.04,1.53,.05,.19,0,.51-.03,.76-.05-.49-.02-.99-.04-1.46-.06Zm.23-1.08c-.31,.02-.57,.04-.83,.05,.51,.02,.99,.04,1.53,.05,.19,0,.51-.03,.76-.05-.49-.02-.99-.04-1.46-.06Zm24.04-3.72c-.26,.02-.77,.04-.73,.05,.11,.04,.45,.07,.69,.1,.26-.02,.77-.04,.73-.05-.11-.04-.45-.07-.69-.1Zm6.98,4.89c.25,.02,.55,.05,.74,.05,.54,0,1.03-.03,1.55-.05-.25-.02-.55-.05-.74-.05-.54,0-1.04,.03-1.55,.05Zm2.99-4.82c-.3-.02-.55-.04-.8-.06-.26,.03-.61,.07-.74,.1-.05,.01,.45,.03,.71,.05,.28-.03,.56-.07,.84-.1Zm5.71,.08c.48-.02,.99-.04,1.49-.05-.25-.02-.55-.05-.74-.05-.54,0-1.04,.03-1.55,.05,.25,.02,.5,.04,.8,.06ZM732.25,7c-.49,.02-.99,.04-1.49,.05,.25,.02,.55,.05,.74,.05,.54,0,1.04-.03,1.55-.05-.25-.02-.5-.03-.8-.06Zm725.22-2.94c-.26-.03-.52-.07-.79-.1-.26,.02-.77,.04-.73,.05,.11,.04,.45,.07,.69,.1,.26-.02,.52-.03,.83-.05Zm-1.79-.8c.25,.02,.55,.05,.74,.05,.54,0,1.04-.03,1.55-.05-.25-.02-.55-.05-.74-.05-.54,0-1.03,.03-1.55,.05Zm2.22,1.88c.3,.02,.55,.04,.8,.06,.26-.03,.61-.07,.74-.1,.05-.01-.45-.03-.7-.05-.28,.03-.56,.07-.84,.1ZM725.87,1.57c-.31,.02-.57,.04-.83,.05,.51,.02,.99,.04,1.53,.05,.19,0,.51-.03,.76-.05-.5-.02-.99-.04-1.46-.06Zm-.07,.31c-.31,.02-.57,.04-.83,.05,.51,.02,.99,.04,1.53,.05,.19,0,.51-.03,.76-.05-.49-.02-.99-.04-1.46-.06Zm338.81,4.67c-.48,.02-.99,.04-1.49,.05,.25,.02,.55,.05,.74,.05,.54,0,1.03-.03,1.55-.05-.25-.02-.5-.03-.8-.06Zm454.86,.01c.26,.03,.53,.07,.79,.1,.26-.02,.77-.04,.73-.05-.11-.04-.45-.07-.69-.1-.26,.02-.52,.03-.83,.05Zm-445.22,.03c-.3-.02-.55-.04-.8-.06-.26,.03-.61,.07-.74,.1-.05,.01,.45,.03,.71,.05,.28-.03,.56-.07,.84-.1ZM1530.11,1.89c-.31,.02-.57,.04-.83,.05,.51,.02,.99,.04,1.53,.05,.19,0,.51-.03,.76-.05-.49-.02-.99-.04-1.46-.06Zm-454.87,1.63c.25,.02,.55,.05,.74,.05,.54,0,1.03-.03,1.55-.05-.25-.02-.55-.05-.74-.05-.54,0-1.04,.03-1.55,.05Zm-186.53,2.74c-.3-.02-.55-.04-.8-.06-.26,.03-.61,.07-.74,.1-.05,.01,.45,.03,.7,.05,.28-.03,.56-.07,.84-.1Zm692.08-.26c-.3-.02-.55-.04-.8-.06-.26,.03-.61,.07-.74,.1-.05,.01,.46,.03,.71,.05,.28-.03,.56-.07,.83-.1Zm-697.89,.64c.48-.02,.99-.04,1.49-.05-.25-.02-.55-.05-.74-.05-.54,0-1.04,.03-1.55,.05,.25,.02,.5,.04,.8,.06Zm96.25-3.84c.25,.02,.55,.05,.74,.05,.54,0,1.04-.03,1.55-.05-.25-.02-.55-.05-.74-.05-.54,0-1.04,.03-1.55,.05Zm640.46,3.86c-.3-.02-.55-.04-.8-.06-.26,.03-.61,.07-.74,.1-.04,.01,.46,.03,.71,.05,.28-.03,.57-.07,.84-.1Zm11.25-4.41c.48-.02,.99-.04,1.49-.05-.25-.02-.55-.05-.74-.05-.54,0-1.03,.03-1.55,.05,.25,.02,.5,.04,.8,.06Zm-546.29,4.32c-.31,.02-.57,.04-.83,.05,.51,.02,.99,.04,1.53,.05,.19,0,.51-.03,.76-.05-.5-.02-.99-.04-1.46-.06ZM1643.63,1.46c-.26-.03-.52-.07-.79-.1-.26,.02-.77,.04-.73,.05,.11,.04,.45,.07,.69,.1,.26-.02,.52-.03,.83-.05Zm18.36-.14c-.26-.03-.53-.07-.79-.1-.26,.02-.77,.04-.73,.05,.11,.04,.45,.07,.69,.1,.26-.02,.52-.03,.83-.05Zm1.27,4.81c-.26-.03-.53-.07-.79-.1-.26,.02-.77,.04-.73,.05,.11,.04,.45,.07,.69,.1,.26-.02,.52-.03,.83-.05Zm3.26-1.44c.26,.03,.52,.07,.79,.1,.26-.02,.77-.04,.73-.05-.11-.04-.45-.07-.69-.1-.26,.02-.52,.03-.82,.05Zm11.01-3.28c-.48,.02-.99,.04-1.49,.05,.25,.02,.55,.05,.74,.05,.54,0,1.04-.03,1.55-.05-.25-.02-.5-.03-.8-.06Zm-584.26,3.52c.25,.02,.55,.05,.74,.05,.54,0,1.03-.03,1.55-.05-.25-.02-.55-.05-.74-.05-.54,0-1.04,.03-1.55,.05Zm606.39-2.92c.49-.02,.99-.04,1.49-.05-.25-.02-.55-.05-.74-.05-.54,0-1.04,.03-1.55,.05,.25,.02,.5,.04,.8,.06Zm8.23,4.39c-.31,.02-.57,.04-.83,.05,.51,.02,.99,.04,1.53,.05,.19,0,.51-.03,.76-.05-.49-.02-.99-.04-1.46-.06Zm16.1-2.59c.26,.03,.53,.07,.8,.1,.26-.02,.77-.04,.73-.05-.11-.04-.45-.07-.69-.1-.26,.02-.51,.03-.83,.05Zm2.36-.31c.26,.03,.52,.07,.79,.1,.26-.02,.77-.04,.73-.05-.11-.04-.45-.07-.69-.1-.26,.02-.52,.03-.82,.05Zm1.48-1.58c-.48,.02-.99,.04-1.49,.05,.25,.02,.55,.05,.74,.05,.54,0,1.04-.03,1.55-.05-.25-.02-.5-.04-.81-.06Zm29.88-.44c-.48,.02-.99,.04-1.49,.05,.25,.02,.55,.05,.74,.05,.54,0,1.03-.03,1.55-.05-.25-.02-.5-.04-.8-.06Zm1.63,3.1c-.48,.02-.99,.04-1.49,.05,.25,.02,.55,.05,.74,.05,.54,0,1.04-.03,1.55-.05-.25-.02-.5-.04-.8-.06Zm-661.62-.61c-.3-.02-.55-.04-.8-.06-.26,.03-.61,.07-.74,.1-.05,.01,.45,.03,.7,.05,.28-.03,.56-.07,.84-.1ZM1763.43,1.53c.26,.03,.53,.07,.79,.1,.26-.02,.77-.04,.73-.05-.11-.04-.45-.07-.69-.1-.26,.02-.52,.03-.83,.05Zm5.11,5.16c-.26-.03-.53-.07-.79-.1-.26,.02-.77,.04-.73,.05,.11,.04,.45,.07,.69,.1,.26-.02,.52-.03,.83-.05Zm8.57-4.84c.26,.03,.52,.07,.79,.1,.26-.02,.77-.04,.73-.05-.11-.04-.45-.07-.69-.1-.26,.02-.52,.03-.83,.05Zm19.92,.22c-.26-.03-.53-.07-.79-.1-.26,.02-.77,.04-.73,.05,.11,.04,.45,.07,.69,.1,.26-.02,.52-.03,.83-.05Zm28.15,.03c.3,.02,.55,.04,.8,.06,.26-.03,.61-.07,.74-.1,.05-.01-.45-.03-.7-.05-.28,.03-.56,.07-.84,.1Zm6.34-.61c-.26-.03-.52-.07-.79-.1-.26,.02-.77,.04-.73,.05,.11,.04,.45,.07,.69,.1,.26-.02,.52-.03,.83-.05Zm-725.88,.64c.26,.03,.53,.07,.8,.1,.26-.02,.77-.04,.73-.05-.11-.04-.45-.07-.69-.1-.26,.02-.52,.03-.83,.05Zm741.31-.09c-.48,.02-.98,.04-1.49,.05,.25,.02,.55,.05,.74,.05,.54,0,1.03-.03,1.55-.05-.25-.02-.5-.03-.8-.06Zm12.52,.4c.3,.02,.55,.04,.8,.06,.26-.03,.61-.07,.74-.1,.05-.01-.45-.03-.7-.05-.28,.03-.56,.07-.84,.1Zm-749.62-.13c.25,.02,.55,.05,.74,.05,.54,0,1.03-.03,1.55-.05-.25-.02-.55-.05-.74-.05-.54,0-1.04,.03-1.55,.05Zm757.53,4.46c.25,.02,.55,.05,.74,.05,.54,0,1.04-.03,1.55-.05-.25-.02-.55-.05-.74-.05-.54,0-1.03,.03-1.55,.05ZM1118.33,1.75c.31-.02,.57-.04,.83-.05-.51-.02-.99-.04-1.53-.05-.19,0-.51,.03-.76,.05,.49,.02,.99,.04,1.46,.06Zm.8,1.63c.26,.03,.53,.07,.79,.1,.26-.02,.77-.04,.73-.05-.11-.04-.45-.07-.69-.1-.26,.02-.52,.03-.83,.05Zm864.65,4.1c-.3-.02-.55-.04-.8-.06-.26,.03-.61,.07-.74,.1-.05,.01,.45,.03,.71,.05,.28-.03,.56-.07,.84-.1Zm39.59-5.26c-.48,.02-.99,.04-1.49,.05,.25,.02,.55,.05,.74,.05,.54,0,1.04-.03,1.55-.05-.25-.02-.5-.03-.8-.06Zm19.61,1.68c.48-.02,.98-.04,1.49-.05-.25-.02-.55-.05-.74-.05-.54,0-1.03,.03-1.55,.05,.25,.02,.5,.03,.8,.06Zm-.21-1.32c.26,.03,.53,.07,.8,.1,.26-.02,.77-.04,.73-.05-.11-.04-.45-.07-.69-.1-.26,.02-.52,.03-.83,.05Zm5.19,4.81c-.3-.02-.55-.04-.8-.06-.26,.03-.61,.07-.74,.1-.04,.01,.46,.03,.71,.05,.28-.03,.56-.07,.83-.1Zm19.82-.04c-.26,.02-.77,.04-.73,.05,.11,.04,.45,.07,.69,.1,.26-.02,.77-.04,.73-.05-.11-.04-.45-.07-.69-.1Zm.76-5.14c.48-.02,.98-.04,1.49-.05-.25-.02-.55-.05-.74-.05-.54,0-1.04,.03-1.55,.05,.25,.02,.5,.03,.8,.06Zm3.88,4.83c-.26,.02-.77,.04-.73,.05,.11,.04,.45,.07,.69,.1,.26-.02,.77-.04,.73-.05-.11-.04-.45-.07-.69-.1Zm24.74-4.73c-.3-.02-.55-.04-.8-.06-.26,.03-.61,.07-.74,.1-.05,.01,.45,.03,.7,.05,.28-.03,.56-.07,.84-.1Zm6.35,5.59c.26,.03,.53,.07,.79,.1,.26-.02,.77-.04,.73-.05-.11-.04-.45-.07-.69-.1-.26,.02-.52,.03-.83,.05Zm13.15-.3c-.3-.02-.55-.04-.8-.06-.26,.03-.61,.07-.74,.1-.05,.01,.45,.03,.7,.05,.28-.03,.56-.07,.84-.1Zm10.29-5.26c-.3-.02-.55-.04-.8-.06-.26,.03-.61,.07-.74,.1-.05,.01,.45,.03,.7,.05,.28-.03,.56-.07,.84-.1ZM682.17,5.4c-.48,.02-.99,.04-1.49,.05,.25,.02,.55,.05,.74,.05,.54,0,1.03-.03,1.55-.05-.25-.02-.5-.03-.8-.06Zm1475.95,1.16c-.3-.02-.55-.04-.81-.06-.26,.03-.61,.07-.74,.1-.04,.01,.46,.03,.71,.05,.28-.03,.56-.07,.84-.1Zm4.38-4.41c.48-.02,.98-.04,1.49-.05-.25-.02-.55-.05-.74-.05-.54,0-1.03,.03-1.55,.05,.25,.02,.5,.03,.8,.06Zm8.07-.22c-.3-.02-.55-.04-.81-.06-.26,.03-.61,.07-.74,.1-.04,.01,.46,.03,.71,.05,.28-.03,.56-.07,.84-.1Zm44.52,.79c-.31,.02-.57,.04-.83,.05,.51,.02,.99,.04,1.53,.05,.19,0,.51-.03,.76-.05-.49-.02-.99-.04-1.46-.06Zm11.06,4.97c-.48,.02-.99,.04-1.49,.05,.25,.02,.55,.05,.74,.05,.54,0,1.04-.03,1.55-.05-.25-.02-.5-.04-.8-.06Zm0-5.39c.26,.03,.53,.07,.79,.1,.26-.02,.77-.04,.73-.05-.11-.04-.45-.07-.69-.1-.26,.02-.52,.03-.83,.05Zm64.08,.37c.26,.03,.53,.07,.79,.1,.26-.02,.77-.04,.73-.05-.11-.04-.45-.07-.69-.1-.26,.02-.52,.03-.83,.05Zm18.9-.37c.48-.02,.98-.04,1.49-.05-.25-.02-.55-.05-.74-.05-.54,0-1.03,.03-1.55,.05,.25,.02,.5,.04,.8,.06Zm30.41,2.48c-.26-.03-.53-.07-.8-.1-.26,.02-.77,.04-.73,.05,.11,.04,.45,.07,.69,.1,.26-.02,.52-.03,.83-.05Zm6.41-1.64c-.26,.02-.77,.04-.73,.05,.11,.04,.45,.07,.69,.1,.26-.02,.77-.04,.73-.05-.11-.04-.45-.07-.69-.1Zm2.76,3.18c.25,.02,.55,.05,.74,.05,.54,0,1.04-.03,1.55-.05-.25-.02-.55-.05-.74-.05-.54,0-1.03,.03-1.55,.05Zm24.17,1.05c-.49,.02-.99,.04-1.49,.05,.25,.02,.55,.05,.74,.05,.54,0,1.04-.03,1.55-.05-.25-.02-.5-.04-.8-.06Zm8.83-1.54c-.31,.02-.57,.04-.83,.05,.51,.02,.99,.04,1.53,.05,.19,0,.51-.03,.76-.05-.5-.02-.99-.04-1.46-.06ZM664.7,1.36c-.48,.02-.99,.04-1.49,.05,.25,.02,.55,.05,.74,.05,.54,0,1.04-.03,1.55-.05-.25-.02-.5-.03-.8-.06Zm1764.41,5.52c.3,.02,.55,.04,.8,.06,.26-.03,.61-.07,.74-.1,.04-.01-.46-.03-.71-.05-.28,.03-.56,.07-.84,.1Zm24-5.09c.3,.02,.55,.04,.8,.06,.26-.03,.61-.07,.74-.1,.05-.01-.45-.03-.71-.05-.28,.03-.56,.07-.84,.1ZM1149.5,6.01c-.48,.02-.98,.04-1.49,.05,.25,.02,.55,.05,.74,.05,.54,0,1.03-.03,1.55-.05-.25-.02-.5-.03-.8-.06Zm1308.33,.5c-.48,.02-.99,.04-1.49,.05,.25,.02,.55,.05,.74,.05,.54,0,1.03-.03,1.55-.05-.25-.02-.5-.03-.8-.06Zm-.17-2.33c-.31,.02-.57,.04-.83,.05,.51,.02,.99,.04,1.53,.05,.19,0,.51-.03,.76-.05-.49-.02-.99-.04-1.46-.06Zm30.51-.28c-.48,.02-.99,.04-1.49,.05,.25,.02,.55,.05,.74,.05,.54,0,1.04-.03,1.55-.05-.25-.02-.5-.04-.8-.06Zm6.74,.63c-.48,.02-.99,.04-1.49,.05,.25,.02,.55,.05,.74,.05,.54,0,1.04-.03,1.55-.05-.25-.02-.5-.04-.8-.06Zm27.83-1.57c.31-.02,.57-.04,.83-.05-.51-.02-.99-.04-1.53-.05-.19,0-.51,.03-.76,.05,.49,.02,.99,.04,1.47,.06Zm12.91,3.93c-.48,.02-.99,.04-1.49,.05,.25,.02,.55,.05,.74,.05,.54,0,1.04-.03,1.55-.05-.25-.02-.5-.03-.8-.06Zm43.03-.73c-.31,.02-.57,.04-.83,.05,.51,.02,.99,.04,1.53,.05,.19,0,.51-.03,.76-.05-.49-.02-.99-.04-1.46-.06Zm.63-2.94c-.31,.02-.57,.04-.83,.05,.51,.02,.99,.04,1.53,.05,.19,0,.51-.03,.76-.05-.49-.02-.99-.04-1.46-.06Zm9.17,3.11c-.49,.02-.99,.04-1.49,.05,.25,.02,.55,.05,.74,.05,.54,0,1.04-.03,1.55-.05-.25-.02-.5-.03-.8-.06Zm15.17-1.3c.3,.02,.55,.04,.8,.06,.26-.03,.61-.07,.74-.1,.05-.01-.45-.03-.7-.05-.28,.03-.57,.07-.84,.1Zm16.09,2.06c.48-.02,.99-.04,1.49-.05-.25-.02-.55-.05-.74-.05-.54,0-1.04,.03-1.55,.05,.25,.02,.5,.03,.8,.06Zm3.11-.73c-.48,.02-.99,.04-1.49,.05,.25,.02,.55,.05,.74,.05,.54,0,1.03-.03,1.55-.05-.25-.02-.5-.04-.8-.06Zm50.24,.82c-.48,.02-.99,.04-1.49,.05,.25,.02,.55,.05,.74,.05,.54,0,1.03-.03,1.55-.05-.25-.02-.5-.04-.8-.06Zm17.03-4.63c-.48,.02-.98,.04-1.49,.05,.25,.02,.55,.05,.74,.05,.54,0,1.04-.03,1.55-.05-.25-.02-.5-.03-.8-.06Zm88.6,3.61c.31-.02,.57-.04,.83-.05-.51-.02-.99-.04-1.53-.05-.19,0-.51,.03-.76,.05,.49,.02,.99,.04,1.46,.06Zm54.16,.83c.48-.02,.99-.04,1.49-.05-.25-.02-.55-.05-.74-.05-.54,0-1.04,.03-1.55,.05,.25,.02,.5,.03,.8,.06Zm44.54-1.62c-.49,.02-.99,.04-1.49,.05,.25,.02,.55,.05,.74,.05,.54,0,1.04-.03,1.55-.05-.25-.02-.5-.03-.8-.06ZM630.94,2.31c.25,.02,.55,.05,.74,.05,.54,0,1.03-.03,1.55-.05-.25-.02-.55-.05-.74-.05-.54,0-1.04,.03-1.55,.05Zm532.66,4.37c-.3-.02-.55-.04-.81-.06-.26,.03-.61,.07-.74,.1-.04,.01,.46,.03,.71,.05,.28-.03,.57-.07,.84-.1Zm2081.79,1.66c-.26,.02-.77,.04-.73,.05,.11,.04,.45,.07,.69,.1,.26-.02,.77-.04,.73-.05-.11-.04-.45-.07-.69-.1ZM1167.14,2.37c.25,.02,.55,.05,.74,.05,.54,0,1.04-.03,1.55-.05-.25-.02-.55-.05-.74-.05-.54,0-1.04,.03-1.55,.05Zm3.91-.67c-.48,.02-.99,.04-1.49,.05,.25,.02,.55,.05,.74,.05,.54,0,1.04-.03,1.55-.05-.25-.02-.5-.03-.8-.06Zm311.64,0c-.48,.02-.99,.04-1.49,.05,.25,.02,.55,.05,.74,.05,.54,0,1.04-.03,1.55-.05-.25-.02-.5-.04-.8-.06ZM939.25,6.88c-.13-.01-1.62,.02-1.8,.05-1.29,.21-.46,.39,2.23,.52,.32,.02,1.17,0,1.53-.01,.89-.05,1.64-.1,2.38-.15-1.43-.14-2.81-.27-4.34-.4Zm-98.61,.68c-.06,.21-2.41,.13-4.04,.15-.99,.01-1.91,.05-2.86,.07,.96,.03,1.93,.07,2.9,.07,3.07,0,7.45,.11,6.29-.3-.76,0-1.53,0-2.29,0Zm942.97-.17c-.39,.06-1.23,.13-1.09,.19,.45,.19,2.8,.11,4.42,.12,.71,0,1.48-.04,3.33-.1-2.94-.09-4.8-.15-6.67-.21ZM1474.48,1.04c-.03-.18-2.01-.19-3.55-.14-1.23,.04-1.89,.16-2.8,.24,1.34,.01,2.68,.03,4.02,.04,.78-.05,1.55-.1,2.33-.15Zm17.07,6.14c1.25,.07,2.51,.14,3.76,.21,.25-.04,.88-.1,.69-.13-.47-.07-1.32-.13-1.97-.19-1.3,.05-1.89,.08-2.48,.1Zm-591.28,.35c1.25,.07,2.51,.14,3.76,.21,.25-.04,.88-.1,.69-.13-.47-.07-1.32-.13-1.97-.19-1.3,.05-1.89,.08-2.48,.1Zm57.21,.14c2.26,.21,4.52,.22,6.87,0-2.29,0-4.58,0-6.87,0Zm1466.89,.09c.67,.03,1.32,.1,2,.1,1.38,0,2.77-.03,4.15-.04-.31-.06-.62-.12-.78-.14-2.65,.04-4.01,.07-5.38,.09Zm52.37-.08c1.28,.07,2.56,.14,3.84,.21,.24-.04,.85-.1,.65-.13-.5-.07-1.38-.13-2.06-.19-1.28,.06-1.86,.08-2.44,.11ZM869.83,1.33c.63,.02,1.33,.06,1.86,.05,.74-.01,1.34-.06,2.01-.09-.62-.02-1.25-.04-2.99-.09-.16,.02-.51,.08-.87,.13Zm87.69,6.18c-.75,0-1.51,0-2.24,0-.67,0-1.3,.03-1.95,.05,.64,.04,1.21,.08,1.94,.1,.65,.02,1.48,0,2.23,0,.01-.05,.02-.1,.03-.15Zm-650.66-.55c.35,.02,.79,.07,1.04,.07,1.15-.02,2.24-.05,3.35-.08-.57-.02-1.15-.04-2.02-.08-.7,.03-1.53,.06-2.37,.09Zm950.11,.35c.27-.04,.86-.09,.73-.13-.19-.05-.91-.09-1.4-.14-.27,.04-.54,.08-1.3,.2,.36,.01,1.16,.03,1.97,.06Zm7.74-.04c.05,.07,.41,.14,.66,.2,.51-.02,1.42-.04,1.45-.06,.07-.07-.19-.14-.35-.22-.85,.03-1.78,.06-1.76,.07Zm171.83-.23c-.01,.05-.12,.1,0,.15,.1,.05,.45,.09,.69,.13,.52-.04,1.22-.08,1.52-.13,.26-.04,.08-.1,.09-.15-.76,0-1.53,0-2.29,0Zm505.14,.95c1.01,0,2.01-.03,3.01-.04-.28-.03-.53-.1-.84-.1-1,0-2.03,.01-3.27,.02,.51,.06,.83,.12,1.11,.12Zm-259.65-.66c.65,.03,1.23,.08,1.97,.1,.52,.01,1.25-.03,1.88-.05-.34-.06-.67-.11-.82-.13-1.76,.05-2.39,.06-3.03,.08Zm1656.98-2.55c.02,.07,.31,.13,.49,.2,.51,0,1.45-.02,1.45-.03,0-.08-.15-.17-.33-.31-1.01,.08-1.61,.11-1.61,.13ZM554.25,7.35c.94,.03,1.86,.07,2.84,.07,.53,0,1.16-.05,1.74-.07-.9-.03-1.79-.06-2.55-.09-.86,.04-1.44,.06-2.03,.09Zm1891.66,.22c-.32,0-.59,.06-.89,.1,.99,.02,1.98,.05,2.99,.05,.27,0,.62-.06,1.16-.12-1.24-.01-2.26-.03-3.26-.03Zm888.51-3.01c.15,.23,2.82,.13,4.55,.16-.15-.23-2.82-.13-4.55-.16ZM306.84,7.03c-.6,.01-1.26,.02-1.75,.05-.14,0,.23,.06,.36,.09,.46-.02,.92-.05,1.37-.07,0-.02,0-.05,.01-.07Zm210.76,.28c.51,.02,.99,.04,1.53,.05,.19,0,.51-.03,.76-.05-.49-.02-.99-.04-1.46-.06-.31,.02-.57,.04-.83,.05Zm32.09-.05c.2,.04,.31,.09,.67,.12,.11,0,.91-.02,1.39-.02-.34-.03-.69-.06-1.04-.09-.34,0-.68,0-1.02,0Zm627.88-.09c.25,.02,.55,.05,.74,.05,.54,0,1.03-.03,1.55-.05-.25-.02-.5-.03-.8-.06-.48,.02-.99,.04-1.49,.05Zm4.95,.29c.11,.04,.45,.07,.69,.1,.26-.02,.77-.04,.73-.05-.11-.04-.45-.07-.69-.1-.26,.02-.77,.04-.73,.05Zm3.17-6.16c.34,.02,.67,.05,1.01,.07,.36-.03,.76-.06,1.04-.09,.05,0-.43-.03-.7-.05-.45,.02-.9,.05-1.35,.07Zm5.59,6.04c.25,.02,.55,.05,.74,.05,.54,0,1.04-.03,1.55-.05-.25-.02-.5-.04-.81-.06-.48,.02-.99,.04-1.49,.05Zm32.36-6.09c.35-.02,.69-.05,1.04-.07-.45-.02-.87-.05-1.37-.07-.08,0-.47,.03-.73,.05,.35,.03,.71,.06,1.06,.09Zm38.7,6.01c-.25-.02-.55-.05-.74-.05-.54,0-1.03,.03-1.55,.05,.25,.02,.5,.04,.8,.06,.48-.02,.99-.04,1.49-.05Zm50.45-.18c-.6,.01-1.26,.02-1.75,.05-.14,0,.23,.06,.36,.09,.46-.02,.92-.05,1.37-.07,0-.02,.01-.05,.01-.07Zm16.46,.07c.11,.04,.45,.07,.69,.1,.26-.02,.77-.04,.73-.05-.11-.04-.45-.07-.69-.1-.26,.02-.77,.04-.73,.05Zm-563.48,.46c.54,0,1.03-.03,1.55-.05-.25-.02-.55-.05-.74-.05-.54,0-1.04,.03-1.55,.05,.25,.02,.55,.05,.74,.05ZM1351.97,1.23c.35-.02,.69-.05,1.04-.07-.45-.02-.87-.05-1.37-.07-.08,0-.47,.03-.73,.05,.35,.03,.71,.06,1.06,.09Zm-300.52,6.37c.2,.04,.31,.09,.67,.12,.11,0,.91-.02,1.39-.02-.35-.03-.69-.06-1.04-.09-.34,0-.68,0-1.02,0Zm552.28-.16c-.25-.02-.55-.05-.74-.05-.54,0-1.04,.03-1.55,.05,.25,.02,.5,.04,.8,.06,.48-.02,.99-.04,1.49-.05Zm4.58,0c-.25-.02-.55-.05-.74-.05-.54,0-1.04,.03-1.55,.05,.25,.02,.5,.03,.8,.06,.48-.02,.99-.04,1.49-.05Zm-2.22-.31c.25,.02,.55,.05,.74,.05,.54,0,1.04-.03,1.55-.05-.25-.02-.5-.03-.8-.06-.49,.02-.99,.04-1.49,.05Zm42.43-.19c-.26,.03-.61,.07-.74,.1-.05,.01,.45,.03,.7,.05,.28-.03,.56-.07,.84-.1-.3-.02-.55-.04-.8-.06Zm1.03,.54c.25,.02,.55,.05,.74,.05,.54,0,1.04-.03,1.55-.05-.25-.02-.5-.04-.8-.06-.48,.02-.99,.04-1.49,.05Zm64.23-.32c-.6,.01-1.26,.02-1.75,.05-.14,0,.23,.06,.36,.09,.46-.02,.91-.05,1.37-.07,0-.02,.01-.05,.01-.07Zm-840.64,.47c.11,.04,.45,.07,.69,.1,.26-.02,.77-.04,.73-.05-.11-.04-.45-.07-.69-.1-.26,.02-.77,.04-.73,.05Zm229.51-.17c.54,0,1.04-.03,1.55-.05-.25-.02-.55-.05-.74-.05-.54,0-1.04,.03-1.55,.05,.25,.02,.55,.05,.74,.05Zm798.94,.19c.2,.04,.31,.09,.67,.12,.1,0,.91-.02,1.39-.02-.35-.03-.69-.06-1.04-.09-.34,0-.68,0-1.02,0Zm217.58,.52c-.6,.01-1.26,.02-1.75,.05-.14,0,.23,.06,.36,.09,.46-.02,.92-.05,1.37-.07,0-.02,0-.05,.01-.07Zm-1252.59-.47c.54,0,1.03-.03,1.55-.05-.25-.02-.55-.05-.74-.05-.54,0-1.04,.03-1.55,.05,.25,.02,.55,.05,.74,.05Zm-11.46-.01c.54,0,1.04-.03,1.55-.05-.25-.02-.55-.05-.74-.05-.54,0-1.03,.03-1.55,.05,.25,.02,.55,.05,.74,.05Zm-203.48-.32c-.26,.03-.61,.07-.74,.1-.05,.01,.45,.03,.7,.05,.28-.03,.56-.07,.84-.1-.3-.02-.55-.04-.8-.06Zm2682.05-2.94c-.52,.04-1.04,.08-1.56,.13,.76,0,1.53,0,2.29,0-.24-.04-.49-.09-.73-.13ZM1027.57,7.11c.36-.02,1.08-.05,1.02-.07-.29-.08-.8-.15-1.23-.23-.33,.04-.65,.08-1.15,.14,.4,.05,.88,.1,1.36,.16Z"/>
</svg>